<svg xmlns="http://www.w3.org/2000/svg" xmlns:xlink="http://www.w3.org/1999/xlink" width="135.52" height="131.646" viewBox="0 0 135.52 131.646"><defs><style>.a{fill:none;}.b{clip-path:url(#a);}.c,.e{fill:#a70b21;}.d{fill:#fff;}.e{fill-rule:evenodd;}</style><clipPath id="a"><rect class="a" width="135.52" height="131.646"/></clipPath></defs><g transform="translate(67.76 65.823)"><g class="b" transform="translate(-67.76 -65.823)"><path class="c" d="M134.555,97.2c.665-.5.582-1.164.5-1.912a14.223,14.223,0,0,1-.083-1.912V90.547c0-.915-.582-1.829,0-2.827s0-.5,0-.665.083-1.247.083-1.912a26.775,26.775,0,0,0,.333-3.159q-.166-5.9-.5-11.723c-.083-1.081,0-2.245-.831-3.159,1.081-.665,1.081-.665.915-1.912a3.416,3.416,0,0,1,0-1.413q-.083-3.908-.166-7.732a2.745,2.745,0,0,0-.083-.665,6.152,6.152,0,0,1,.249-3.326,11.309,11.309,0,0,0,.249-2.744c0-1-.166-2-.249-3.076a21.493,21.493,0,0,1,0-2.328c0-.748-.249-3.409-.166-5.155,0-3.159.166-6.319.249-9.561s0-4.988,0-7.4c0-.831.083-1.663,0-2.494s-.333-3.076-.5-4.656a4.661,4.661,0,0,0-.333-1.58,7.229,7.229,0,0,0,.333-1,24.277,24.277,0,0,0,.333-7.483,12.138,12.138,0,0,0-.748-2.661,1.164,1.164,0,0,0-.748-.5,42.651,42.651,0,0,0-10.06-1c-3.159.083-4.573.416-7.732.416s-5.238.416-7.9,0h-.665c-1.746.5-3.492.083-5.238-.166s-1.413-.249-1.912.166A41.4,41.4,0,0,0,92.9.422c-3.159.083-6.319.416-9.561.416s-5.238.416-7.9,0h-.665c-1.746.5-3.492.083-5.238-.166A3.908,3.908,0,0,0,68.292.588a45.311,45.311,0,0,0-6.485.083A91.124,91.124,0,0,1,50.749.505L44.1.089c-2.245-.249-4.49.5-6.734.166H33.871L29.714.422A91.124,91.124,0,0,1,18.656.505L12,.089C9.76-.16,7.515.588,5.27.173H2.859C2.028.256,1.2.089.7,1A5.487,5.487,0,0,0,.033,4.579c.166,1,.748,1.912,0,2.91s0,.665,0,1.081S.2,9.484.2,9.983C.365,14.057.531,18.131.615,22.2S.531,29.272.448,32.847.2,40.5.2,44.321c0,15.8-.333,31.594.416,47.391,0,.831-.249,1.663.333,2.411a.748.748,0,0,1,0,.582C.033,97.032.2,99.36.282,101.771S.116,105.1.116,106.843a3.991,3.991,0,0,0,.333,1.829,4.656,4.656,0,0,1,.083,3.991A11.307,11.307,0,0,0,.116,117.4c.166,3.409.416,6.9.582,10.31a20.219,20.219,0,0,1,0,2.245c0,.748.166,1.33,1.081,1.5a24.94,24.94,0,0,0,3.492.249h6.152l12.637-.249,7.815.166a1.912,1.912,0,0,0,1.247-.582c.166.333.416.416.915.5a24.933,24.933,0,0,0,3.492.249h6.152l12.637-.249,7.815.166a2.245,2.245,0,0,0,1.912-1.829v-.249c.249,1.081.582,1.5,1.33,1.413l2.245-.333c.748-.083,1.663-.5,2.162-.166s2.661.249,3.991.333l7.9.249H96.393a9.308,9.308,0,0,0,1.829-.416h.333a1,1,0,0,0,1,.5h.831a17.121,17.121,0,0,0,2.494-.083,2.5,2.5,0,0,0,1.164-.249c1.247.665,2.577.166,3.824.249l7.9.249h12.721c.582,0-.582-.333,0-.416s.582-.249.831-.083a34.236,34.236,0,0,0,5.654.333c1.247-.083.166-.748.083-2.245s.083-3.741.166-5.57-.083-4.573-.083-6.818-1-2.66.083-3.991,0-2-.083-2.993-.249-2.993-.333-4.573a.5.5,0,0,1,.166-.416c.665-.5.333-1.164.333-1.746a21.8,21.8,0,0,0-.083-2.245,5.072,5.072,0,0,0-.333-1c1.081-.582,0-1.164-.166-1.829" transform="translate(0.051 -0.006)"/><path class="d" d="M79,95.4l.083.083L79,95.4Z" transform="translate(-13.318 -16.083)"/><path class="d" d="M128.165,95.4a1.392,1.392,0,0,0,.416-1.663,12.3,12.3,0,0,1-.083-1.663V89.661c0-.748-.5-1.663,0-2.494s0-.416,0-.582.083-1.081.083-1.663a22.854,22.854,0,0,0,.249-2.744q-.166-5.155-.416-10.226c-.083-.915,0-2-.748-2.744,1-.582,1-.582.831-1.663a2.662,2.662,0,0,1,0-1.247q-.083-3.409-.166-6.734a2.328,2.328,0,0,0-.083-.582,5.238,5.238,0,0,1,.166-2.91,9.646,9.646,0,0,0,.249-2.411c0-.915-.166-1.746-.249-2.661a15.838,15.838,0,0,1,0-2c0-.665-.166-2.993-.166-4.49,0-2.744.166-5.57.166-8.314V29.716a18.746,18.746,0,0,0,0-2.162c-.083-.748-.249-2.744-.416-4.074a3.1,3.1,0,0,0-.333-1.413,6.242,6.242,0,0,0,.333-.915,20.7,20.7,0,0,0,.333-6.485,10.477,10.477,0,0,0-.665-2.328,1,1,0,0,0-.665-.5,24.609,24.609,0,0,0-6.984-.831c-2.827.083-5.654.333-8.48.333s-4.656.333-6.984,0h-.582c-1.58.5-3.076.083-4.656-.166s-1.247-.249-1.663.166A37.5,37.5,0,0,0,91.5,11.01c-2.827.083-5.654.333-8.48.333s-4.656.333-6.984,0h-.582c-1.58.5-3.076.083-4.656-.166a3.575,3.575,0,0,0-1.33-.083,40.9,40.9,0,0,0-5.737.083,82.558,82.558,0,0,1-9.811-.166l-5.9-.166c-2-.166-3.991.416-5.986.166H38.954l-3.741.166A82.557,82.557,0,0,1,25.4,11.01l-5.9-.416c-2-.166-3.991.416-5.986.166H11.434c-.665.083-1.5-.083-1.912.665a4.656,4.656,0,0,0-.582,3.409c.166.831.665,1.663,0,2.494s0,.582,0,.915a7.378,7.378,0,0,0,.166,1.247c.166,3.575.333,7.067.416,10.642s-.083,6.236-.083,9.312-.166,6.651-.249,9.977c0,13.718-.249,27.52.416,41.238a3.616,3.616,0,0,0,.249,2.079.665.665,0,0,1,0,.5c-.831,2-.665,4.074-.665,6.152s-.166,2.91-.166,4.406a3.409,3.409,0,0,0,.249,1.58,3.991,3.991,0,0,1,.083,3.492,9.644,9.644,0,0,0-.416,4.157l.5,8.979v1.912c0,.582.166,1.164,1,1.247h.831c21.035-92.619,95.2-85.469,89.294-51.714a21.534,21.534,0,0,1-13.3,16.046,8.148,8.148,0,0,1-9.728-1.247A8.48,8.48,0,0,1,75.287,78.6c-2.494,3.492-1.912,9.312,1.081,12.3s7.483,2.91,10.808,2.411,11.473.249,14.217,6.319c2.494,4.656.416,10.06-3.326,13.968a13.647,13.647,0,0,1-14.3,3.492c-11.39-7.15-17.044-21.035-13.3-33.839-3.492,7.649-4.739,16.961-1.247,24.859s11.473,13.635,19.538,16.462h5.57a8.479,8.479,0,0,0,1.58-.416h.249a.831.831,0,0,0,.915.416h.748a15.469,15.469,0,0,0,2.245,0,2.162,2.162,0,0,0,1.081-.249c1.164.582,2.245.166,3.409.249l6.984.166h11.307a8.478,8.478,0,0,0,1.58-.416,1.228,1.228,0,0,1,.748-.083,2.907,2.907,0,0,0,1.663.333c1.164,0,1.746-.665,1.746-1.912s.083-3.242.166-4.905-.083-3.991-.083-5.9-.831-2.328.083-3.492,0-1.746-.083-2.661-.249-2.661-.333-3.991a.5.5,0,0,1,.083-.333c.582-.416.333-1,.333-1.5a16.045,16.045,0,0,0-.083-1.912,4.323,4.323,0,0,0-.249-.831c.915-.5,0-1-.166-1.58" transform="translate(-1.457 -1.781)"/><path class="e" d="M69.666,116.277c-3.492-7.9-2.162-17.21,1.247-24.859-3.741,12.887,2,26.688,13.3,33.838,5.155,1.746,10.891.5,14.3-3.492s5.82-9.312,3.326-13.968c-2.744-6.069-9.728-6.984-14.217-6.319s-8.314.249-10.808-2.411-3.575-8.813-1.081-12.3a8.48,8.48,0,0,0,2.328,9.561,8.148,8.148,0,0,0,9.644,1.247,21.534,21.534,0,0,0,13.3-16.046C107,47.768,32.835,40.618,11.8,133.238l2.245.166h5.4l11.224-.249h6.9a1.746,1.746,0,0,0,1.081-.5,1.037,1.037,0,0,0,.831.5,22.61,22.61,0,0,0,3.076.249h5.4l11.224-.249h6.9a2,2,0,0,0,1.663-1.58v-.249c.249.915.582,1.247,1.247,1.247l2-.249c.665-.083,1.413-.416,1.912-.166a17.64,17.64,0,0,0,3.492.333l6.984.166h5.737c-8.065-2.744-16.129-8.647-19.538-16.462" transform="translate(-1.989 -9.856)"/><path class="c" d="M121.5,72.39a18.914,18.914,0,0,1,1.247,9.561,23.028,23.028,0,0,1-.915,3.825c4.905-2.162,11.889-2.328,19.122.582-1.5-8.148-9.728-14.633-19.372-13.968" transform="translate(-20.483 -12.196)"/><path class="d" d="M95.749,62.5l1.829,5.487h5.9l-4.822,3.326,1.829,5.487-4.739-3.409L91.01,76.8l1.829-5.487L88.1,67.987h5.82Z" transform="translate(-14.853 -10.537)"/><path class="c" d="M96.017,50.856C90.7,47.7,83.961,46.2,76.063,47.2,57.606,49.609,44.386,62.828,44.22,62.662,22.853,48.944,55.194,47.2,55.194,47.2c-7.649-2-9.977-15.88-4.822-19.788C64.839,16.352,74.566,41.295,74.566,41.295c-4.323-11.64-1.5-19.538,3.326-21.783,18.125-8.564,19.039,24.028,18.125,31.344" transform="translate(-6.224 -3.05)"/><path class="d" d="M85.4,33.146l.333-1.746c.831.665.748,1-.333,1.746" transform="translate(-14.397 -5.294)"/><path class="d" d="M53.489,61.206a.831.831,0,0,1,.083-.748c.416-.416.748-.166,1.081.333s-.665.748-1.164.333" transform="translate(-9.009 -10.157)"/><path class="d" d="M87.9,45.565c0-.416.166-.665.582-.665a1.247,1.247,0,0,1,1.081,1.081,2.329,2.329,0,0,1-.665.5c-.416.166-1-.416-1-.915" transform="translate(-14.819 -7.57)"/><path class="d" d="M56.716,38.213A5.234,5.234,0,0,1,56.3,37.3a.582.582,0,0,1,.249-.5.5.5,0,0,1,.416.249.915.915,0,0,1-.333,1.164" transform="translate(-9.491 -6.204)"/><path class="d" d="M67.7,35.782a.582.582,0,0,1,.166-.5c.5-.249.831.083,1,.665s-.915.416-1.164-.166" transform="translate(-11.412 -5.934)"/><path class="d" d="M69.356,49.58A1.413,1.413,0,0,1,68.691,48c1.413.5,1.5.665.665,1.58" transform="translate(-11.573 -8.092)"/><path class="d" d="M102.466,50.764,102.3,49.6h1.33v.249l-1.164.915" transform="translate(-17.246 -8.362)"/><path class="d" d="M97.591,26.178l-.915-.831a.665.665,0,0,1-.083-.582.748.748,0,0,1,.582-.166c.582.166.665.5.333,1.58" transform="translate(-16.279 -4.146)"/><path class="d" d="M27.989,9.706a.831.831,0,0,1,.083-.748c.416-.416.748-.166,1.081.333s-.665.748-1.164.333" transform="translate(-4.71 -1.475)"/><path class="d" d="M140.516,9.513A5.235,5.235,0,0,1,140.1,8.6a.582.582,0,0,1,.249-.5.5.5,0,0,1,.416.249.915.915,0,0,1-.333,1.164" transform="translate(-23.619 -1.366)"/><path class="d" d="M43.8,2.482a.582.582,0,0,1,.166-.5c.5-.249.831.083,1,.665s-.915.416-1.164-.166" transform="translate(-7.383 -0.32)"/><path class="d" d="M155.256,39.78a1.413,1.413,0,0,1-.665-1.58c1.413.5,1.5.665.665,1.58" transform="translate(-26.054 -6.44)"/><path class="d" d="M158.5,6.164V5h.083a3.741,3.741,0,0,0,.582.665l-.665.416" transform="translate(-26.721 -0.843)"/><path class="d" d="M23.3,132.43a6.617,6.617,0,0,1-.5.665,4.655,4.655,0,0,1-.5-1c0-.166.249-.416.416-.5s.665.5.582.831" transform="translate(-3.76 -22.184)"/><path class="d" d="M25.266,123.164A10.394,10.394,0,0,0,25.1,122c.831,0,.831,0,1.081,1.663-.748.333-.831.333-.915-.5" transform="translate(-4.232 -20.568)"/><path class="d" d="M29.253,144.711c-.249,0-.416-.249-.665-.333s.333-.5.582-.582.416.166.831.416-.582.5-.831.5" transform="translate(-4.809 -24.24)"/><path class="d" d="M34.5,129.413c-.5-.166-.582-.5-.416-1.413l.915.748-.582.748" transform="translate(-5.733 -21.579)"/><path class="d" d="M49.075,109.782c-.665-.166-.831-.748-1.081-1.33s1.164-.083,1.081,1.33" transform="translate(-8.086 -18.243)"/><path class="d" d="M58.9,132.43a6.616,6.616,0,0,1-.5.665,4.655,4.655,0,0,1-.5-1c0-.166.249-.416.416-.5s.665.5.582.831" transform="translate(-9.761 -22.184)"/><path class="d" d="M61.631,87.3c.5,0,.915.083,1,.665s-.333.748-.748.748S60.8,88.3,60.8,87.965s.5-.582.831-.665" transform="translate(-10.25 -14.718)"/><path class="d" d="M75.981,144.112h-.5a9.649,9.649,0,0,1-.582-1.164l.5-.748c.249.166.582.333.665.665a2.827,2.827,0,0,1-.083,1.164" transform="translate(-12.627 -23.973)"/><path class="d" d="M86.781,113.3h-.5a9.818,9.818,0,0,1-.582-1.164l.5-.831c.249.166.582.333.665.665a2.744,2.744,0,0,1-.083,1.164" transform="translate(-14.448 -18.764)"/><path class="d" d="M62.9,109.47c.748-.249,1.247-.249,1.663.5s-1.164.083-1.663-.5" transform="translate(-10.604 -18.43)"/><path class="d" d="M126.4,75.37c.748-.249,1.247-.249,1.663.5s-1.164.083-1.663-.5" transform="translate(-21.309 -12.681)"/><path class="d" d="M68.053,153.111c-.249,0-.416-.25-.665-.333s.333-.5.582-.582.416.166.831.416-.582.5-.831.5" transform="translate(-11.35 -25.656)"/><path class="d" d="M2.266,76.064A10.394,10.394,0,0,0,2.1,74.9c.831,0,.831,0,1.081,1.663-.748.333-.831.333-.915-.5" transform="translate(-0.354 -12.627)"/><path class="d" d="M156.266,44.964A10.8,10.8,0,0,0,156.1,43.8c.831,0,.831,0,1.081,1.663-.748.333-.831.333-.915-.5" transform="translate(-26.317 -7.384)"/><path class="d" d="M4.181,90.4h-.5A9.569,9.569,0,0,1,3.1,89.231l.5-.831c.249.166.582.333.665.665a2.827,2.827,0,0,1-.083,1.164" transform="translate(-0.523 -14.903)"/><path class="d" d="M4.3,62.27c.748-.249,1.247-.249,1.663.5s-1.164.083-1.663-.5" transform="translate(-0.725 -10.473)"/><path class="d" d="M6.253,97.611c-.249,0-.416-.249-.665-.333s.333-.5.582-.582.416.166.831.416-.582.5-.831.5" transform="translate(-0.932 -16.299)"/><path class="d" d="M159.453,69.711c-.249,0-.416-.249-.665-.333s.333-.5.582-.582.416.166.831.416-.582.5-.831.5" transform="translate(-26.759 -11.596)"/><path class="d" d="M140.853,153.611c-.249,0-.416-.249-.665-.333s.333-.5.582-.582.416.166.831.416-.582.5-.831.5" transform="translate(-23.624 -25.74)"/><path class="d" d="M69.8,73.171l-.249,1.164L68.3,73.587c.333-.748.915-.582,1.5-.416" transform="translate(-11.515 -12.312)"/><path class="d" d="M70.264,86.381,69.1,85.55c1-.416,1.081-.416,1.164.831" transform="translate(-11.649 -14.381)"/><path class="d" d="M70.1,129.413c-.5-.166-.582-.5-.416-1.413l.915.748-.582.748" transform="translate(-11.735 -21.579)"/><path class="d" d="M72.2,110.048a5.154,5.154,0,0,1-.915,1.247c-.249-.5-.582-.748-.582-1a.914.914,0,0,1,.831-1c.416,0,.831.333.665.748" transform="translate(-11.918 -18.427)"/><path class="d" d="M72.8,124.071c.665-.831.748-.831,1.58-.083-.665.831-.915.831-1.58.083" transform="translate(-12.273 -20.81)"/><path class="d" d="M75.6,124.509c.831-.748,1.164-.582,1.413.665l-1.413-.665" transform="translate(-12.745 -20.915)"/><path class="c" d="M12.4,71.946l.333-1.746c.831.665.748,1-.333,1.746" transform="translate(-2.09 -11.835)"/><path class="c" d="M13.089,135.906a.831.831,0,0,1,.083-.748c.416-.416.748-.166,1.081.333s-.665.748-1.164.333" transform="translate(-2.198 -22.75)"/><path class="c" d="M14.9,84.265c0-.416.166-.665.582-.665a1.247,1.247,0,0,1,1.081,1.081,2.329,2.329,0,0,1-.665.5c-.416.166-1-.416-1-.915" transform="translate(-2.512 -14.094)"/><path class="c" d="M16.416,113.213A5.158,5.158,0,0,1,16,112.3a.582.582,0,0,1,.249-.5.5.5,0,0,1,.5.249.915.915,0,0,1-.333,1.164" transform="translate(-2.697 -18.847)"/><path class="c" d="M15.113,18.887,13.7,17.807c0-.249.083-.582.665-.416a3.326,3.326,0,0,1,1,.416l1.5,1.413c-.748.333-1.081.249-1.746-.333" transform="translate(-2.31 -2.924)"/><path class="c" d="M124.935,18.372l-1.746-.416c-.083-.249-.166-.582.5-.665a3.409,3.409,0,0,1,1.081,0l1.912.665c-.5.665-.915.665-1.746.416" transform="translate(-20.759 -2.908)"/><path class="c" d="M14.841,122.58a1.413,1.413,0,0,1-.748-1.58c1.413.5,1.5.665.748,1.58" transform="translate(-2.37 -20.399)"/><path class="c" d="M38.566,80.464,38.4,79.3h1.33v.249l-1.247,1" transform="translate(-6.474 -13.369)"/><path class="c" d="M17.789,59.678l-.915-.831a.582.582,0,0,1-.083-.582.748.748,0,0,1,.582-.166c.582.166.665.5.333,1.58" transform="translate(-2.824 -9.793)"/><path class="c" d="M111.981,32.5c.166,0,.249.333.333.5s-.416.333-.582.333a2.91,2.91,0,0,1-.831-.416v-.333h1" transform="translate(-18.696 -5.479)"/><path class="c" d="M72.948,26.2v1.33l-.748-.748a3.493,3.493,0,0,1,.831-.582" transform="translate(-12.172 -4.417)"/><path class="c" d="M52.9,19.665V19l.5.5-.5.166" transform="translate(-8.918 -3.203)"/><path class="c" d="M43.648,31.5v1.247L42.9,32l.748-.5" transform="translate(-7.232 -5.311)"/><path class="c" d="M28.487,89.206a.748.748,0,0,1,.083-.748c.416-.416.748-.166,1.081.333s-.665.748-1.164.333" transform="translate(-4.792 -14.877)"/><path class="c" d="M29.016,66.013A5.072,5.072,0,0,1,28.6,65.1a.582.582,0,0,1,.249-.5.5.5,0,0,1,.5.249.915.915,0,0,1-.333,1.164" transform="translate(-4.822 -10.89)"/><path class="c" d="M26.8,43.282a.582.582,0,0,1,.166-.5c.5-.249.831.083,1,.665s-.915.416-1.164-.166" transform="translate(-4.517 -7.199)"/><path class="c" d="M19.944,109.9a1.413,1.413,0,0,1-.748-1.5c1.413.5,1.5.665.748,1.5" transform="translate(-3.233 -18.275)"/><path class="c" d="M34.6,69.864V68.7h.083a3.659,3.659,0,0,0,.582.665l-.665.416" transform="translate(-5.833 -11.582)"/><path class="c" d="M145.2,142.53a6.617,6.617,0,0,1-.5.665,4.49,4.49,0,0,1-.5-1c0-.166.249-.416.416-.5s.665.5.582.831" transform="translate(-24.31 -23.887)"/><path class="c" d="M114.166,103.164A10.39,10.39,0,0,0,114,102c.831,0,.831,0,1.081,1.663-.748.333-.831.249-.915-.5" transform="translate(-19.219 -17.196)"/><path class="c" d="M121.781,134.029h-.5a9.568,9.568,0,0,1-.582-1.081l.5-.748c.249.166.582.333.665.582a2.743,2.743,0,0,1-.083,1.164" transform="translate(-20.349 -22.287)"/><path class="c" d="M118.753,142.411c-.249,0-.416-.249-.665-.333s.333-.5.582-.582.416.166.831.416-.582.5-.831.5" transform="translate(-19.898 -23.852)"/><path class="c" d="M133,141.813c-.5-.166-.582-.5-.416-1.413l.915.748-.582.665" transform="translate(-22.339 -23.67)"/><path class="c" d="M113.6,109.271c.665-.831.748-.831,1.58-.083-.665.831-.915.831-1.58.083" transform="translate(-19.152 -18.315)"/><path class="c" d="M125.675,95.182c-.665-.166-.831-.748-1.081-1.33s1.164-.083,1.081,1.33" transform="translate(-21 -15.782)"/><path class="c" d="M135.5,117.53a6.622,6.622,0,0,1-.5.665,4.489,4.489,0,0,1-.5-1c0-.166.249-.416.416-.5s.665.5.582.831" transform="translate(-22.675 -19.673)"/><path class="c" d="M147.081,24.7c.166,0,.249.333.333.5s-.416.333-.582.333a2.992,2.992,0,0,1-.831-.416v-.333h1" transform="translate(-24.614 -4.164)"/><path class="c" d="M138.331,73c.5,0,.915.083,1,.665s-.333.748-.748.748S137.5,74,137.5,73.665s.5-.582.831-.665" transform="translate(-23.181 -12.307)"/><path class="c" d="M119.4,49.23a6.627,6.627,0,0,1-.5.665,4.488,4.488,0,0,1-.5-1c0-.166.249-.416.416-.5s.665.5.582.831" transform="translate(-19.961 -8.158)"/><path class="c" d="M121.466,40.064A10.55,10.55,0,0,0,121.3,38.9c.831,0,.831,0,1.081,1.663-.748.333-.831.249-.915-.5" transform="translate(-20.45 -6.558)"/><path class="c" d="M122.681,52.129h-.5a9.4,9.4,0,0,1-.582-1.081l.5-.748c.249.166.582.333.665.582a2.659,2.659,0,0,1-.083,1.164" transform="translate(-20.5 -8.48)"/><path class="c" d="M139.6,94.77c.748-.249,1.247-.249,1.663.5s-1.164.083-1.663-.5" transform="translate(-23.535 -15.952)"/><path class="c" d="M141.553,129.711c-.249,0-.416-.249-.665-.333s.333-.5.582-.582.416.166.831.416-.582.5-.831.5" transform="translate(-23.742 -21.711)"/><path class="c" d="M146.6,58.871l-.249,1.164-1.247-.748c.333-.748.915-.582,1.58-.416" transform="translate(-24.462 -9.901)"/><path class="c" d="M147.064,72.081,145.9,71.25c1-.416,1.164-.416,1.164.831" transform="translate(-24.597 -11.97)"/><path class="c" d="M148.9,95.348a5.22,5.22,0,0,1-.915,1.247c-.416.5-.582-.665-.582-1a.915.915,0,0,1,.831-1c.416,0,.831.333.665.748" transform="translate(-24.849 -15.948)"/><path class="c" d="M149.5,109.271c.665-.831.748-.831,1.58-.083-.665.831-.915.831-1.58.083" transform="translate(-25.204 -18.315)"/><path class="c" d="M152.283,109.714c.831-.748-.748-.5-.5.665-.416-.166,1-.416.5-.665" transform="translate(-25.576 -18.425)"/></g></g></svg>