<svg xmlns="http://www.w3.org/2000/svg" xmlns:xlink="http://www.w3.org/1999/xlink" width="491.42" height="146.195" viewBox="0 0 491.42 146.195"><defs><style>.a{fill:none;}.b{clip-path:url(#a);}.c,.e{fill:#a70b21;}.d{fill:#fff;}.e{fill-rule:evenodd;}</style><clipPath id="a"><rect class="a" width="491.42" height="146.196"/></clipPath></defs><g transform="translate(245.71 73.098)"><g class="b" transform="translate(-245.71 -73.098)"><path class="c" d="M386.408,16.106h-8.982c-.615,0-.738-.246-.738-.738a2.952,2.952,0,0,1,0-.615,2.215,2.215,0,0,0-1.107-2.092,1.107,1.107,0,0,0-1.846.738,1.969,1.969,0,0,0,.246,1.23,10.828,10.828,0,0,0,1.477,1.353,4.8,4.8,0,0,1,.861.861,2.953,2.953,0,0,0,1.6,1.23,8.593,8.593,0,0,1,1.969,1.6c.615.492.492.615.861.615a2.953,2.953,0,0,1,1.6,1.23l.492.492a2.215,2.215,0,0,1,.984.984l1.353,1.969a14.394,14.394,0,0,1,2.215,4.922,4.551,4.551,0,0,1,0,.984v.369q.187,1.285.246,2.584a10.337,10.337,0,0,1-.615,3.445l-.615,1.969a3.569,3.569,0,0,1-.984,1.723l-1.23,1.353a8.612,8.612,0,0,1-1.476,1.353c-.861.492-1.477,1.23-2.584,1.23s-.369.369-.615.369l-2.338.492h-2.707a11.074,11.074,0,0,1-6.029-1.723,21.17,21.17,0,0,1-3.322-2.461,9.352,9.352,0,0,1-2.215-3.568l-.615-1.723a3.327,3.327,0,0,1-.246-.861c-.123-2.092-.246-4.183-.246-6.275s.246-1.476,1.477-1.353l5.537.246H371.4c1.107,0,1.23.123,1.354,1.107s0,1.23.123,1.723a12.552,12.552,0,0,0,.492,1.969,1.107,1.107,0,0,0,.861.615c1.107.123,1.354-.123,1.6-1.23a3.2,3.2,0,0,0-1.23-3.2l-3.2-2.584a7.137,7.137,0,0,1-1.846-1.969,1.722,1.722,0,0,0-.738-.738,6.52,6.52,0,0,1-2.461-2.092,6.151,6.151,0,0,1-1.477-2.584l-.246-.369c-.861-.615-.984-1.476-1.353-2.338a23.3,23.3,0,0,1-.738-2.215,6.029,6.029,0,0,1-.246-3.322A17.842,17.842,0,0,1,363.4,6.386l.492-.984A14.273,14.273,0,0,1,368.2,1.834,10.212,10.212,0,0,1,372.5.6a26.946,26.946,0,0,1,5.537.369l1.107.492,1.723.984a2.953,2.953,0,0,1,1.476,1.23l.246.246c1.107.369,1.353,1.353,1.969,2.092a6.028,6.028,0,0,1,1.23,3.2,29.153,29.153,0,0,1,.492,3.814,24.011,24.011,0,0,1-.123,2.953M369.921,31.855ZM367.091,7Zm15.626,4.183h0m-2.338,17.595h0m-8.49-12.3h0m-5.168-8.367h.246V7.863h0l-.246.369m9.843,35.928h.123v-.246h-.123v.246m6.275-9.966h.123l.246-.246h-.123l-.246.246M372.75,19.059ZM373,25.334h0v-.123h.123m8.613,14.4h0m-16.364-9.228h0" transform="translate(83.357 0.135)"/><path class="c" d="M328.979,44.547a2.089,2.089,0,0,1-.246-.738V37.78a1.476,1.476,0,0,1,0-.369,7.257,7.257,0,0,0-.123-2.83,2.957,2.957,0,0,1,0-.615q.076-.3.123-.615c0-3.2,0-6.521,0-9.72,0-1.107-.123-2.215-.123-3.322s.123-3.937.123-5.906a13.229,13.229,0,0,0-.123-1.969c0-.738-.123-3.691,0-5.537s.123-3.076.123-4.552.246-.984,1.107-1.107a23.624,23.624,0,0,1,4.922-.123h6.644a6.029,6.029,0,0,1,1.969.123h.615a2.092,2.092,0,0,1,1.722.369l.984.492,1.107.738a9.967,9.967,0,0,1,2.338,3.2,5.907,5.907,0,0,1,.615,2.092,16.247,16.247,0,0,1,.123,2.461,7.2,7.2,0,0,1-.246,1.6,4.122,4.122,0,0,0,0,1.23l-.984,1.107h.984c0,1.846.246,3.568-.492,5.291a4.553,4.553,0,0,1-1.477,1.723c-.738.492-.738.861-.123,1.476l1.23,1.107a4.306,4.306,0,0,1,.984,2.707,17.472,17.472,0,0,1,0,4.306,1.227,1.227,0,0,0,0,.369,10.459,10.459,0,0,1,.123,4.183c-.123.984-.123,1.969-.246,2.953a4.676,4.676,0,0,1-1.107,2.584l-.369.492a1.723,1.723,0,0,1-1.107,1.107l-.369.246a3.2,3.2,0,0,1-1.723,1.107,13.165,13.165,0,0,1-4.552.861H329.841c-.492,0-.861,0-.861-.615h-.246Zm18.7-23.747Zm-17.595,2.83Zm2.584-21.9ZM337.346,33.6h-.123l.369,1.846a1.23,1.23,0,0,0,1.353,1.23,3.445,3.445,0,0,0,2.707-1.23,7.384,7.384,0,0,0,.984-1.723,5.045,5.045,0,0,0,.246-1.846,19.446,19.446,0,0,0-.492-2.83,2.584,2.584,0,0,0-2.707-2.215h-.615a1.353,1.353,0,0,0-1.722,1.23,19.554,19.554,0,0,0,0,2.215c0,.123,0,.369,0,.492v3.076m-.615-22.27a3.813,3.813,0,0,1,.246.861c0,.492-.123.861-.123,1.353s.123,2.092.123,3.076h0a.984.984,0,0,0,1.107,1.107h.738a3.445,3.445,0,0,0,2.707-1.107,1.108,1.108,0,0,0,.246-.492l.246-1.353a5.538,5.538,0,0,0,.369-1.969c-.246-1.353-.492-2.707-1.969-3.322a4.183,4.183,0,0,0-2.338-.492c-.861.123-1.353.492-1.23,1.353a.984.984,0,0,1-.246.984M333.655,7.02c.369.738,1.107.615,1.6.861s-.861-.738-1.6-.861m14.15-3.2h-.123l.492.615h.123l-.492-.615m-11.566,40.6h-.369l-.246.246h.123l.492-.246m1.107-37.9h.123m11.074,4.429h0M329.964,44.67h0m6.029-30.76h0m8.49,23.5h0M342.268,5.42h0m-12.8,3.937h0m15.257.492h0m0-8.367h0M329.718,44.055Zm11.443-5.783h0m7.505-22.147h0m-15.38,27.684h0a.247.247,0,0,0,0,.123h0M348.3,8h0" transform="translate(75.698 0.24)"/><path class="c" d="M148.223,22.969a2.338,2.338,0,0,1-.123-.615c0-1.23.123-2.461.123-3.568s-.123-.492,0-.738a3.429,3.429,0,0,0,.123-1.23,2.215,2.215,0,0,1-.123-.738c0-.738.246-1.6.246-2.338a6.637,6.637,0,0,0-.123-.738,47.3,47.3,0,0,1,0-5.906c.246-1.969,0-1.969.123-2.953s.123-1.23.246-1.846a1.107,1.107,0,0,1,.615-.615l.984-.246a8.613,8.613,0,0,1,3.691,0v.615c.369-.246.738-.615.984-.738a3.937,3.937,0,0,1,1.23.123l-.246.246a1.228,1.228,0,0,1,.615.492,2.829,2.829,0,0,1,.123.861,2.213,2.213,0,0,1,.123.615,1.968,1.968,0,0,1-.246.615l-.492.738h.123l.369-.615c0,.492.246.861.123.984s0,.615-.123.861a6.152,6.152,0,0,0,.246,2.584.123.123,0,0,1,0,.123c-.369,1.476.123,2.953,0,4.429s-.123,1.6-.246,2.461.246.615,0,.984l-.246.369a2.707,2.707,0,0,1,.369.738.861.861,0,0,0,.615.738,2.83,2.83,0,0,0,1.969.246h.984c.861.123,1.353-.123,1.476-1.107a10.582,10.582,0,0,0,0-2.584,6.89,6.89,0,0,1,.123-2.707,1.177,1.177,0,0,0,0-1.107c-.246-.369,0-.246,0-.369V4.144c0-.492,0-.984.492-1.107a3.692,3.692,0,0,1-.123-1.107.922.922,0,0,1,.984-.615h2.215l.861.369a1.723,1.723,0,0,1,1.353-.246h2.092L170,2.668l-.615.369H170l-.246.369h.492l-.492.738a3.937,3.937,0,0,1,.369,2.461,2.952,2.952,0,0,0,0,.615V8.328c0,.369-.123.246-.123.369a6.153,6.153,0,0,1-.123,2.584c-.123.861.369,1.846-.369,2.707H170a.738.738,0,0,1,.123.492c0,.615-.123,1.23-.123,1.969V21.37c0,1.6.123,4.306,0,6.521a29.65,29.65,0,0,0,0,3.568q-.019.864-.123,1.723V35.4c0,.738-.123,2.83-.123,4.306s-.123.492-.123.615a17.349,17.349,0,0,1,0,3.445c0,.984-.492,1.23-1.353,1.107l-.615-.246-1.23.246h-3.568c-.861.123-1.23-.123-1.353-.984a3.759,3.759,0,0,1,0-1.23V32.566c0-1.353.123-2.707.123-4.06s-.369-1.476-1.353-1.6H157.82l-.861-.369a20.554,20.554,0,0,0-.369,2.092,13.9,13.9,0,0,0-.123,3.937,5.537,5.537,0,0,1,0,1.6,19.435,19.435,0,0,0,.123,3.2v3.691c0,1.23-.246,2.092-.246,3.2a3.076,3.076,0,0,1-.246.615h-7.136c-.984-.246-.861-.984-.738-1.6a12.058,12.058,0,0,0,0-1.846c0-1.969.123-3.937.123-5.906a.985.985,0,0,0,0-.369,7.136,7.136,0,0,1,0-3.2,12.674,12.674,0,0,0,0-3.691,1.848,1.848,0,0,1,0-.492,8.738,8.738,0,0,0,.123-1.846,14.765,14.765,0,0,1,0-3.445h0Zm4.552,20.178ZM166.925,3.16Zm-4.06,12.3h0a.616.616,0,0,1,0,.123h0m-.123,10.581Zm5.783-.369ZM153.268,11.773h0m2.338,13.165v.246l.369-.246h-.492M153.022,8.082h0m9.351,2.83h0l.492-.246h0l-.492.246M150.93,3.037h-.123l.246.369h.123l-.246-.369m-1.723,38.634h.246v-.246h-.246m2.83-36.543h0M167.663,1.93h0M156.59,24.815h0m7.013,1.6h0m-.738-24.239h0m-9.351,26.7Zm12.181,3.568h.123V32.2h-.123v.246m-15.749-23.5h0m17.718-5.414h0m.246,17.841h0M160.9,19.893h0m3.568-13.534h0m-11.2,20.917h0m0,7.505h0m1.6,9.228h0M152.406,2.791h0m15.749,40.357h0" transform="translate(34.121 0.285)"/><path class="c" d="M237.715,22.931c-.123-.246-.123-.615-.246-.861a16,16,0,0,0-.123-2.338,5.17,5.17,0,0,1,.123-1.107V4.6a20.016,20.016,0,0,0-.123-2.953.615.615,0,0,1,.738-.738h3.568c1.353.123,2.707,0,4.06,0s.861.246.984.861.246,1.107.369,1.6.492,3.076.615,4.676.123,2.092.246,3.076.246.861.246,1.353c.246,2.584.861,5.045,1.107,7.628a5.541,5.541,0,0,0,.369.984,1.354,1.354,0,0,0,.369-1.23V13.7a8.9,8.9,0,0,1,.123-1.846l1.353.369h0l-.738-.369c-.615-.123-.738-.615-.738-1.107V7.92A31.111,31.111,0,0,0,249.9,4.6a10.153,10.153,0,0,1,0-1.969V1.645c0-.369.246-.861.615-.738s3.2-.123,4.8,0h.615v5.66c0,1.969-.123,3.937-.123,5.906s.123,2.953.123,4.552-.123,1.969-.123,2.953V31.667c0,1.6-.123,2.584-.123,3.814v2.338c0,.738-.123,1.23-.123,1.846v2.092a7.04,7.04,0,0,0,.123,1.723,2.709,2.709,0,0,1-.123.615l-.246.861h-.369a17.84,17.84,0,0,0-3.076.123H248.05a.861.861,0,0,1-.738-.615,2.462,2.462,0,0,1-.123-.615l-.738-4.06c-.246-1.353-.615-4.429-.984-6.644l-.492-2.953c-.123-1.107-.492-2.215-.615-3.445a16.36,16.36,0,0,0-.615-2.584,2.953,2.953,0,0,0-.369-.738,13.043,13.043,0,0,0-.246,3.445q0,1.107,0,2.215v2.953c0,.984-.123,2.215-.123,3.322s.123,1.846.123,2.707V43.97a3.573,3.573,0,0,1-.123.615.738.738,0,0,1-.738.615H238.7c-1.476-.246-1.476-.246-1.476-1.846s-.123-2.338-.123-3.445.123-2.092.123-3.2-.123-1.107-.123-1.723.123-3.445.123-5.168V24.038a10.824,10.824,0,0,1,.123-1.353h0Zm15.38-9.966h.123l.246,1.23c.369-.615.246-.861-.246-1.23H253.1m-1.476,16.856h0M241.9,44.832h0" transform="translate(54.627 0.201)"/><path class="c" d="M193.56,1.868a8,8,0,0,1,4.429-.861c.738,0,1.476.369,2.215.123a2.413,2.413,0,0,1,2.338.984c.615.738,1.107.615,1.6.738a1.6,1.6,0,0,1,.984.984,1.476,1.476,0,0,0,.615.615,2.707,2.707,0,0,1,1.23,1.353l1.107,3.076a1.722,1.722,0,0,1,0,.738A7.5,7.5,0,0,0,208.2,11.1a.738.738,0,0,1,0,.369,6.89,6.89,0,0,0,.123,2.953,1.477,1.477,0,0,1-.369,1.353c.123.492.738.861.123,1.476s.123.492.246.861-.123.861-.861.984h-4.552c-.369,0-.738,0-.861-.246h-1.477a7.752,7.752,0,0,1-.246-2.953V14.787a7.568,7.568,0,0,1,.123-1.6c.123-.492.123-.123.123-.246a15.874,15.874,0,0,0-.615-3.2l-.492-.492a2.953,2.953,0,0,0-3.322,0,2.584,2.584,0,0,0-.984,1.723l-.492,1.846a9.6,9.6,0,0,1,0,4.8,1.6,1.6,0,0,1,.246,1.6,1.969,1.969,0,0,0,0,.615c0,.861,0,1.723,0,2.461s-.123.246,0,.369a3.691,3.691,0,0,1,.123,2.092,17.844,17.844,0,0,0,.123,3.076,4.92,4.92,0,0,1,0,2.092.247.247,0,0,0,0,.123c.369.738-.123,1.6,0,2.338h0c.492.615.123,1.353.123,2.092a2.214,2.214,0,0,0,.123.615l.369.984c.123.492.123,1.107.861,1.107s.246.246.369.369a3.814,3.814,0,0,0,3.076-1.476,5.291,5.291,0,0,0,.492-3.322l.738-.246H200.7c.123-.738-.123-1.6.369-2.338s-.369-.615-.246-2.338l.615-.369c.246-.369.615-.369,1.107-.246h3.691v.246l1.6-.369.492.246a8.859,8.859,0,0,1,.492,2.83,22.516,22.516,0,0,0,.123,4.8,9.6,9.6,0,0,1-2.461,7.382,5.66,5.66,0,0,1-2.584,1.969c-.369.123-.861.615-1.353.123H202.3l-.246.246-.369-.492c.123.738-.246.861-.861.984l-3.445.369h-.369c-.492.123-.861-.861-1.476-.246l-1.723-.369-1.476-.738c-.246-.123-.738,0-.984-.369l-.738-.738a.738.738,0,0,1-.738-.738.738.738,0,0,0-.615-.615,1.476,1.476,0,0,1-.738-.615,9.72,9.72,0,0,1-1.477-4.676,1.354,1.354,0,0,0,0-.369,4.183,4.183,0,0,1,.246-3.2,6.521,6.521,0,0,1,0-4.183,30.518,30.518,0,0,1-.123-3.2c.123-.861-.369-1.969.369-2.83a1.845,1.845,0,0,1-.369-1.846,8.5,8.5,0,0,0,0-1.23v-6.4c0-2.092.123-1.107.246-1.723a.615.615,0,0,0,0-.369c-.369-.492-.123-.861.369-1.107s0-2.461.369-3.691,1.23.369,1.476-.615l-.369.369a.369.369,0,0,1-.492-.369l.246-.984h1.107l-.615-.369c0-.369.246-.615.615-.369a5.291,5.291,0,0,1,1.6-1.723h.369c.246.246.369,0,.492-.123s.492-.615.861-.123h0Zm8.121,33.959Zm2.584-19.563Zm1.23-.615h.123v.246m-12.427-4.552h0m-3.322,7.382v-.369h-.123v.369M202.3,30.413c-.615-.369-.738-.246-.738.369l.738-.369m-14.888-9.1.984.246-.738-.984-.246.738m16.118,10.827v.984c.369-.369.369-.615-.123-.984M201.681,8.389a.952.952,0,0,0,.123-.369l-.246-.246h-.246l.246.369m1.23,22.27h-.246v.738h.123ZM201.8,16.14h-.246v.369h.123V16.14m-.615,15.38h0M197.62,2.114h-.246v.369h.123V2.114m-4.306,8.49h.123v-.369h-.123V10.6m.861-8.49h0m8.859,3.937h.123V5.682h-.123Zm-1.846,1.23h.123V7.159h-.123v.369m-11.812.492h-.123l.246.246h.123ZM195.037,3.1h0m9.843,25.1Zm-17.225-13.9h0m-.123-.615h0m14.4,19.809h0m-9.72,8.859h0M203.772,9.988h0m1.107.246h0m-17.1,11.935h0m1.23-16.241h0m10.7,35.435h0M204.264,29.8h0m-13.411-14.15h0M203.4,9.127h0" transform="translate(43.045 0.224)"/><path class="c" d="M282.6,22.209l1.23.738a2.461,2.461,0,0,1,1.354,2.092,48.737,48.737,0,0,1,.246,6.89c0,1.23.123,2.338.123,3.568V39.8c0,1.476.246,2.092.246,3.076a11.569,11.569,0,0,1,.123,1.353c0,.615-.123.738-.738.861h-5.906a18.665,18.665,0,0,1-.369-2.584,32.981,32.981,0,0,1-.246-4.8c.123-2.092,0-4.183,0-6.275V27.254a1.476,1.476,0,0,0-1.6-1.723c-.492,0-.738.123-.615.615s.123,3.322.123,5.045V38.7c0,2.461,0,3.2.123,4.8s0,.246,0,.369a1.277,1.277,0,0,1-1.23,1.107H271.4c-.369,0-.738.123-.984-.246h-.738a7.5,7.5,0,0,1-.123-.984c0-1.723.123-3.322.123-5.045V32.052c0-2.215-.123-3.568-.123-5.291v-.123a12.054,12.054,0,0,0,0-3.076,25.648,25.648,0,0,0,0-3.076V16.18a29.772,29.772,0,0,1,0-4.429,12.18,12.18,0,0,0-.123-1.969,7.745,7.745,0,0,1,0-.861,2.336,2.336,0,0,0,0-.861c-.369-.984,0-2.092-.123-3.076s0-.492,0-.738h0L269.556.8h9.351a5.906,5.906,0,0,1,3.568,1.107h.246a8.244,8.244,0,0,1,1.846,3.076c.123.984.369,1.969.492,2.83a8.37,8.37,0,0,1,0,1.107v6.4a20.547,20.547,0,0,1,0,2.461,8.119,8.119,0,0,1-.615,2.338,5.044,5.044,0,0,1-1.107,1.23l-.492.492m-8-19.809Zm1.477,5.537V18.395c1.107.246,1.846,0,1.969-.738a11.682,11.682,0,0,0,.246-2.338c0-1.107-.123-2.338-.123-3.445a27.563,27.563,0,0,0-.123-2.953A1.353,1.353,0,0,0,276.2,7.69m-2.707,1.23V8.552h0m1.477,11.074h0m3.445,2.707h0m1.846,2.461h0M269.925,20.61h0" transform="translate(62.035 0.184)"/><path class="c" d="M222.859,14.313v6.4c0,2.092.123,2.953.123,4.306s-.123,3.322-.123,5.045,0,5.168.123,7.751a8.489,8.489,0,0,1-1.969,5.66,3.445,3.445,0,0,1-1.107.984,7.013,7.013,0,0,1-3.691,1.107c-1.107.615-2.338.123-3.322-.123a6.521,6.521,0,0,1-4.183-2.584c-1.353-1.846-1.476-3.937-1.6-6.029a7.22,7.22,0,0,1,0-1.969V28.093c0-2.215.123-4.552.123-6.89s-.123-3.691-.123-5.537.123-2.338.123-3.568a28.787,28.787,0,0,0,0-3.2,7.382,7.382,0,0,1,.369-2.83,7.382,7.382,0,0,1,2.953-4.06l1.107-.492A9.228,9.228,0,0,1,215.354.9a12.673,12.673,0,0,1,3.445.738,6.029,6.029,0,0,1,3.445,3.691,11.442,11.442,0,0,1,.738,5.045c-.123,1.353,0,2.707,0,4.06Zm-1.846,2.461h0m-7.382,18.579c0,1.6,0,1.969.369,2.461s1.476.738,1.846.123a4.06,4.06,0,0,0,.492-2.215V32.769c0-.369-.123-.615-.123-.861s.123-2.461.123-3.691a25.752,25.752,0,0,0-.123-3.2,4.414,4.414,0,0,1,0-1.353c0-.369.123-2.83.123-4.183s-.123-2.953-.123-4.552a8.614,8.614,0,0,0-.123-2.338.862.862,0,0,1,0-.369,6.4,6.4,0,0,0-.246-2.83c-.123-.492-.492-.615-.861-.738a.738.738,0,0,0-.861.492,12.3,12.3,0,0,0-.492,2.215,19.686,19.686,0,0,0,0,2.338q0,3.814.123,7.751v2.338c0,.738-.123,3.076-.123,4.676s.123,3.2.123,4.8-.123,1.846-.123,2.338m1.353-31.744h-.123l.246.246h.123l-.246-.246m-3.568,17.1h0m7.505-8.859h0" transform="translate(47.705 0.206)"/><path class="c" d="M222.872,38.981a3.937,3.937,0,0,1-.123-2.461,1.232,1.232,0,0,0,0-.492,1.723,1.723,0,0,1,.123-1.6,1.23,1.23,0,0,1-.246-1.107,6.274,6.274,0,0,0-.123-1.353.987.987,0,0,1,0-.246,23.875,23.875,0,0,1,.246-3.322,2.585,2.585,0,0,0,0-.861V26.062a7.749,7.749,0,0,1,0-.984l.246-.246h0a1.107,1.107,0,0,1-.369-.984c0-.861,0-1.723,0-2.707v-.246a2.439,2.439,0,0,1,.369-1.353h0c-.492-.861-.123-1.846-.246-2.707a7.685,7.685,0,0,1-.123-1.476V12.281c0-.615.123-2.092.123-3.2a2.1,2.1,0,0,0,0-.246c-.123-.861-.123-1.723-.246-2.584a1.6,1.6,0,0,1,.123-.861,1.845,1.845,0,0,0,.123-1.476,3.076,3.076,0,0,1,.246-1.846h.615c.369-.861.738-.984,1.476-.861h2.461c0,.861.615.615,1.107.615s.246.615.123.738.369,1.723.123,2.707a11.19,11.19,0,0,0-.123,1.6c.492.615,0,1.476.123,2.338a9.355,9.355,0,0,1,0,1.107c0,.246-.123.615-.123.861V12.65c0,.492.123,2.215.123,3.445a9.963,9.963,0,0,1,0,1.846c-.123,1.107.123,2.092,0,3.076s.123,2.707-.123,4.06-.123.369-.123.615a2.214,2.214,0,0,0,.369.615l-.369.369c.123,1.723.369,3.2.369,4.8a22.878,22.878,0,0,1-.123,2.338,4.062,4.062,0,0,0,0,1.353,6.521,6.521,0,0,1,0,1.723,2.954,2.954,0,0,0,.492,1.353.984.984,0,0,0,1.6,0,2.215,2.215,0,0,0,.492-1.6c0-1.23.123-2.584,0-3.814a11.2,11.2,0,0,1,.123-2.584c0-.246-.123-.492-.123-.738a24.851,24.851,0,0,1-.123-3.076,19.2,19.2,0,0,1,.123-3.814.861.861,0,0,0,0-.492,6.522,6.522,0,0,1-.246-2.584V16.834c0-.861.123-1.969.123-2.83s-.123-.861-.123-1.353-.369-1.353.123-2.092a21.662,21.662,0,0,1-.123-3.568,26.454,26.454,0,0,1,0-3.076,8.49,8.49,0,0,1,.615-2.092.492.492,0,0,1,.861-.246l.861.738a2.685,2.685,0,0,1,.492-.615h1.969l-.246.738h.123l.369-.492c.123-.123.123-.369.246-.492h.492l.246.246c-.246.369.246.615.123.861a3.568,3.568,0,0,0,0,.861c0,1.107.123,2.338.123,3.445a11.563,11.563,0,0,1,0,3.2,3.323,3.323,0,0,0,0,1.107c0,1.353-.123,2.707,0,3.937a12.055,12.055,0,0,1,0,2.461c-.123.738-.123,1.353-.246,2.092a4.43,4.43,0,0,0,.123,1.476,6.4,6.4,0,0,1-.123,1.723c.492.492.369,1.23.369,1.969a32.332,32.332,0,0,0-.123,3.691,15.1,15.1,0,0,1,.123,2.092c0,.738.123,4.676.123,7.013a13.9,13.9,0,0,1-.615,3.937,5.66,5.66,0,0,1-2.461,2.953,8.244,8.244,0,0,1-7.136.738,9.474,9.474,0,0,1-3.076-1.969,3.076,3.076,0,0,1-.738-1.23,5.168,5.168,0,0,1-.861-3.076h0Zm.123-35.8Zm2.215-1.107h.492c-.369-.246-.369-.246-.492,0ZM233.945,39.1h-.123v.369h.123V39.1m2.092-33.836h0M236.9,6.5h0" transform="translate(51.26 0.269)"/><path class="c" d="M310.549,44.957a4.183,4.183,0,0,1-2.338-1.107,7.752,7.752,0,0,1-1.846-3.2,14.149,14.149,0,0,1-.738-4.306c0-1.353-.123-2.83-.123-4.183a7.008,7.008,0,0,1,.123-.861,26.822,26.822,0,0,1,5.906-.123v1.6a22.023,22.023,0,0,0-.123,2.215,8.121,8.121,0,0,0,.369,1.476,2.339,2.339,0,0,0,.246.861,1.969,1.969,0,0,0,2.092.861,1.846,1.846,0,0,0,1.6-1.476,4.921,4.921,0,0,0-.369-3.076A5.167,5.167,0,0,0,314.24,31.3a1.108,1.108,0,0,1-.246-.738,2.429,2.429,0,0,0-.738-1.476L311.9,26.5l-1.723-2.83-.246-.369c-.861-1.846-1.846-3.568-2.83-5.414a16.118,16.118,0,0,1-1.6-7.013,15.259,15.259,0,0,1,.369-4.306,7.383,7.383,0,0,1,2.584-4.06h.984V2.017c0-.123,1.6-1.23,2.584-.492l.246-.492a5.414,5.414,0,0,1,2.707,0l1.6.492.861.492.369.246c.984.123,1.353.861,1.846,1.6a9.106,9.106,0,0,1,1.6,4.552,30.482,30.482,0,0,1,.369,3.322,22.041,22.041,0,0,1-.123,2.584.6.6,0,0,1,0,.861h-1.23l-1.6.246-2.953-.246a2.827,2.827,0,0,1-.246-.738V11.491a6.275,6.275,0,0,0-.369-2.338,1.477,1.477,0,0,0-2.092-.738l-.369.246a7.135,7.135,0,0,0-.492,2.092,10.088,10.088,0,0,0,.984,3.568l.369.492c.123.123.246.246.246.369s.615,1.107.861,1.723l1.477,2.83,2.953,5.291a7.5,7.5,0,0,1,.492,1.353s0,.123,0,.123.738,1.23,1.107,1.969a16.98,16.98,0,0,1,1.6,5.537,22.516,22.516,0,0,1-.369,5.414,6.152,6.152,0,0,1-1.969,3.568,15.007,15.007,0,0,1-1.723,1.476,7.628,7.628,0,0,1-5.66,1.107l-1.6-.369-.369-.369M307.6,7.922c.369-.246.492-.369.123-.615h-.369l.246.615m8.367,16.118h.123v-.369h-.123Zm-2.707-1.846h0" transform="translate(70.381 0.198)"/><path class="c" d="M167.623,1.246h13.165c.492,0,.738.123.738.615s0,3.568.123,5.291-.123.615-.615.615h-6.152v10.7c.738.246,1.6-.123,1.846.738s.492-.492.738-.615h1.353c.369,0,.369.369.369.738v5.291a1.208,1.208,0,0,1-1.23,1.107h-3.076V32.99c0,2.092-.123,2.338-.123,3.568s.246,1.107.984,1.107h5.783a45.4,45.4,0,0,1,0,7.382,5.168,5.168,0,0,1-2.461.246H167.623V24.624c0-2.953-.123-2.461-.123-3.691s.123-2.584.123-3.937-.123-2.461-.123-3.814.123-2.215.123-3.322S167.5,8.136,167.5,7.4V2.723A12.8,12.8,0,0,1,167.746,1m2.584,29.406h0m7.751,8.613c-.246.123-.492.246-.246.861l.246-.861m-8.613-7.628h.369v-.246h-.492m.861-11.566h-.123v.369h.123v-.369m-.615-16.364h0m10.7.123h0M178.82,39.388h0m-3.691.738h0m-2.338-18.948h0m-3.568,8.982h0M170.7,43.08h0m1.723-29.406h0m.492-4.183h0m-2.461,28.053h0m3.814-16.61h0m-3.322,7.136h0m-1.107,5.045h0" transform="translate(38.591 0.23)"/><path class="c" d="M357.059,7.844V18.426c.615.369,1.6-.123,1.846.984.492-1.107,1.353-.738,1.969-.738s.492.246.492.615V24.7c0,.984-.369,1.23-1.23,1.107h-3.076c0,.369-.123.615-.123.861v5.906c0,1.969-.123,2.707-.123,4.06s.123.984.861.984H359.4a24.24,24.24,0,0,0,3.937,0h.369v5.66a2.689,2.689,0,0,1,0,.369V45a5.66,5.66,0,0,1-2.461.246h-11.32V24.578c0-1.107-.123-2.092-.123-3.2s.123-2.092.123-3.076V13.381c0-1.6.123-.861.123-1.353,0-2.83-.123-5.537-.123-8.367a16.67,16.67,0,0,1,.246-2.461h13.165c.615,0,.738.123.738.615s0,3.445.123,5.168-.123.615-.615.615h-6.275m-4.8,23.008h0m7.751,8.613c-.246.123-.492.246-.246.861l.246-.861m-8.613-7.628h.369v-.246h-.369m.861-11.566h-.246v.369h.123v-.369m-.615-16.364h0m10.7.123h0M361.12,39.588h0m-4.06.984h-.123v.246m-1.969-19.071h0m-3.445,8.736h0M353,43.4h0M354.722,14h0m.369-4.306h0m-2.338,28.053h0m3.814-16.487h0m-3.322,7.136h0m-1.107,5.045Z" transform="translate(80.592 0.276)"/><path class="c" d="M283.3,1.374a2.953,2.953,0,0,1,2.092-.246,3.445,3.445,0,0,0,2.092-.123h1.6c.369,0,.738.123.738.492a9.232,9.232,0,0,0,.861,2.83c.123.246,0,.492,0,.738A28.789,28.789,0,0,0,291.913,9a2.707,2.707,0,0,0,.615-1.476c.123-.861.369-1.723.492-2.584V4.819a3.445,3.445,0,0,0,.615-1.6,9.351,9.351,0,0,1,.492-1.6,3.076,3.076,0,0,1,2.83-.492H299.3c.615.123.738.369.615.984s-.369,1.476-.492,2.215l-.984,4.06-1.6,5.783-.738,3.322-.246.492v.246c.246.861-.492,1.6-.615,2.461a2.215,2.215,0,0,1,0,1.723,1.476,1.476,0,0,0-.123.615c0,1.353.123,2.83.123,4.183V28.2q0,3.322-.123,6.767c0,.369.246.861-.123,1.23s0,1.23.246,1.846a.861.861,0,0,1-.369,1.107,12.264,12.264,0,0,1,.246,1.969v2.83c0,.984-.246.861-.984,1.23a6.6,6.6,0,0,1-2.707.123h-2.338c-.492,0-.738,0-.738-.492a8.737,8.737,0,0,1,.123-1.107c0-.492.123-1.107.123-1.6a35.572,35.572,0,0,1-.123-4.306,29.92,29.92,0,0,0,0-3.322V22.66a8.24,8.24,0,0,0-.246-1.107l-.246-1.353v-1.23c-.123-.492-.123-.984-.246-1.476L286.622,13.8c-.123-.369-.123-.861-.246-1.23a4.922,4.922,0,0,0-.246-.984,21.155,21.155,0,0,1-1.107-4.306c-.246-.984-.615-1.846-.861-2.707a16.123,16.123,0,0,1-.369-1.846l-.246-1.353" transform="translate(65.271 0.225)"/><path class="c" d="M145.151,1.07h1.6a6.152,6.152,0,0,0,1.723-.123.565.565,0,0,1,.738.615V5.868a2.338,2.338,0,0,0,0,.615c.123.615,0,.984-.615.984h-1.723c-1.476,0-1.476,0-1.6,1.476a31.181,31.181,0,0,0-.123,3.2c0,1.107.123,1.6.123,2.338v1.353c0,2.584-.123,5.045-.123,7.628s.123,2.83.123,4.306a24.362,24.362,0,0,1-.123,3.937c-.123.861.369,1.723-.246,2.461s.123.492.123.738v3.937a12.8,12.8,0,0,0,.123,2.584,8.367,8.367,0,0,1,0,1.969q0,.554,0,1.107a.824.824,0,0,1-.492.861h-3.322c-.369-.492.369-.984-.246-1.353h0l-.246.861a3.322,3.322,0,0,1-2.215.492c-.123,0-.369-.246-.492-.369a1.107,1.107,0,0,1,0-.615V33.921c0-1.353.123-.615.123-.984s-.123-.861-.123-1.23v-2.83c0-.984.123-2.83.123-4.306V22.232a2.338,2.338,0,0,1,0-.861,5.537,5.537,0,0,0,0-2.461V8.452c0-.615-.246-.984-.984-.984h-2.092c-.738.123-.984-.123-.984-.861V1.931c0-1.6.492-1.23,1.353-1.107h6.767a7.874,7.874,0,0,1,2.83.123h0m-6.4,22.024h0v-.246h-.123v.246" transform="translate(30.919 0.161)"/><path class="c" d="M265.95,1.093h1.6A6.152,6.152,0,0,0,269.273.97a.565.565,0,0,1,.738.615V5.891a2.214,2.214,0,0,0,0,.615c.123.615,0,.984-.615.984h-1.723c-1.476,0-1.476,0-1.6,1.476a25.46,25.46,0,0,0,0,3.076c0,1.107.123,1.6.123,2.338v1.353c0,2.584-.123,5.045-.123,7.628s.123,2.83.123,4.306a24.6,24.6,0,0,1-.123,3.937c-.123.861.369,1.723-.246,2.461s.123.492.123.738v3.937a12.677,12.677,0,0,0,.123,2.584,8.37,8.37,0,0,1,0,1.969V44.4a.824.824,0,0,1-.492.861h-3.445c-.369-.492.369-.984-.246-1.353h0l-.246.861a3.322,3.322,0,0,1-2.215.492c-.123,0-.369-.246-.492-.369a1.107,1.107,0,0,1,0-.615c0-.984,0-1.846,0-2.83V33.821c0-1.353.123-.615.123-.984s-.123-.861-.123-1.23v-2.83c0-.984.123-2.83.123-4.306V22.132a2.339,2.339,0,0,1,0-.861,5.536,5.536,0,0,0,0-2.461q0-1.723,0-3.445V8.352c0-.615-.246-.984-.984-.984h-2.092c-.738.123-.984-.123-.984-.861V1.831c0-1.6.492-1.23,1.353-1.107h6.767a7.752,7.752,0,0,1,2.83.123h0Zm-6.4,22.024h0v-.246h-.123v.246" transform="translate(58.751 0.138)"/><path class="c" d="M393.951,1.093h1.6A6.152,6.152,0,0,0,397.273.97a.565.565,0,0,1,.738.615V5.891a2.338,2.338,0,0,0,0,.615c.123.615,0,.984-.615.984h-1.723c-1.476,0-1.476,0-1.6,1.476a25.46,25.46,0,0,0,0,3.076c0,1.107.123,1.6.123,2.338v1.353c0,2.584-.123,5.045-.123,7.628s.123,2.83.123,4.306a24.6,24.6,0,0,1-.123,3.937c-.123.861.369,1.723-.246,2.461s.123.492.123.738v3.937a12.791,12.791,0,0,0,.123,2.584,8.365,8.365,0,0,1,0,1.969q0,.554,0,1.107a.824.824,0,0,1-.492.861h-3.445c-.369-.492.369-.984-.246-1.353h0l-.246.861a3.322,3.322,0,0,1-2.215.492c-.123,0-.369-.246-.492-.369a1.108,1.108,0,0,1,0-.615V33.821c0-1.353.123-.615.123-.984s-.123-.861-.123-1.23v-2.83c0-.984.123-2.83.123-4.306V22.132a2.339,2.339,0,0,1,0-.861,5.536,5.536,0,0,0,0-2.461V8.352c0-.615-.246-.984-.984-.984h-2.092c-.738.123-.984-.123-.984-.861V1.831c0-1.6.492-1.23,1.353-1.107h6.767a7.752,7.752,0,0,1,2.83.123h0m-6.4,22.024h0v-.246h-.123v.246" transform="translate(88.241 0.138)"/><path class="c" d="M298.915,9.614c-.369-.246-.246-.738-.369-1.23a41.62,41.62,0,0,1-.246-4.8V1.617c0-.738.123-.615.369-.615h4.8c.492,0,.738.246.861.861a8.738,8.738,0,0,1,0,1.846c-.123,1.969-.369,3.937-.492,6.029s-.369,4.183-.492,6.275-.123.738-.492.738a1.969,1.969,0,0,1-1.23,0,.984.984,0,0,0-.984-.123c-.984.492-1.6-.492-1.723-1.723s-.246-2.83-.246-4.306a5.162,5.162,0,0,1,.123-.984m3.445,1.476h.123v-.246h-.123v.369" transform="translate(68.727 0.229)"/><path class="c" d="M328.9,36.4Z" transform="translate(75.777 8.386)"/><path class="c" d="M202.733,105.038c-.246.861-.246.861-1.107.615h-.492c-1.107-.123-1.353.123-1.476,1.353a32.363,32.363,0,0,0-.738,4.552,2.819,2.819,0,0,0,0,.369,26.578,26.578,0,0,1,.246,3.937c0,1.969.123,4.06.123,6.029s-.123,1.107-.123,1.6v1.969c0,.738-.123,1.476-.123,2.215v6.152a1.6,1.6,0,0,1-1.353,1.23h-5.414l-8.613.246h-4.183l-2.338-.246c-.615-.123-.738-.369-.738-1.107v-1.6l-.369-7.382a8.366,8.366,0,0,1,.246-3.445,3.445,3.445,0,0,0-.123-2.83,2.954,2.954,0,0,1-.246-1.353c0-1.23.123-2.461.123-3.568a13.412,13.412,0,0,1,.492-5.045.492.492,0,0,0,0-.369c-.369-.492-.123-1.107-.246-1.723-.492-11.32-.246-22.516-.246-33.836,0-2.707.123-5.414.123-8.121s.123-5.045.123-7.628-.246-5.783-.246-8.736c0-.369-.123-.615-.123-.984s-.123-.615,0-.738a5.688,5.688,0,0,0,0-2.092,4.06,4.06,0,0,1,.492-2.461c.369-.615.984-.492,1.476-.615h1.6c1.6.246,3.076-.246,4.675-.123l4.552.369a60.413,60.413,0,0,0,7.628.123,23.993,23.993,0,0,1,6.644.246l.861.369-.738.492.369.492a1.23,1.23,0,0,1,.369,1.107c0,.615.123,1.23.123,1.846v7.382c0,2.461.123,6.152.123,9.228a35.064,35.064,0,0,0,.615,6.275,8.612,8.612,0,0,0,.369,1.23,1.353,1.353,0,0,0,1.107.984,9.228,9.228,0,0,0,2.953.246,6.89,6.89,0,0,1,2.953.123c.246.123.615-.123.984-.123h1.846a13.78,13.78,0,0,0,4.429-.615c.615-.123.861-.492.984-1.353a18.168,18.168,0,0,0,.123-2.584q.123-4.183.123-8.367c.123-3.814.123-7.505.123-11.32,0-1.23.123-2.461.123-3.691a3.56,3.56,0,0,1,0-.492c.123-.984.492-1.107,1.353-.738s.984-.615,1.6-.492a7.751,7.751,0,0,0,3.568.123h.492a39.865,39.865,0,0,0,5.414,0l6.521-.246a28.3,28.3,0,0,1,6.767.615.861.861,0,0,1,.492.369,8.981,8.981,0,0,1,.492,1.846,17.963,17.963,0,0,1-.246,5.291l-.246.738c.123.369.123.738.246,1.107s.246,2.215.369,3.322a7.489,7.489,0,0,1,0,1.723V62.22c0,1.723-.123,4.552-.123,6.767s.123,2.461.123,3.691V74.4c0,.615.123,1.476.123,2.215a8.491,8.491,0,0,1-.246,1.969,4.551,4.551,0,0,0-.123,2.338,2.092,2.092,0,0,1,0,.492v6.521a1.26,1.26,0,0,1-.615,1.353A3.322,3.322,0,0,1,247.4,91.5q.246,4.183.369,8.367a19.823,19.823,0,0,1-.246,2.215,5.047,5.047,0,0,1-.123,1.353c-.123.492.123.369,0,.492a10.156,10.156,0,0,0,0,1.969v1.969a10.587,10.587,0,0,0,.123,1.353,1.165,1.165,0,0,1-.369,1.353c-.492.369.861.861.123,1.353a3.568,3.568,0,0,1,.246.738c0,.492,0,1.107,0,1.6s.246.861-.246,1.23a.369.369,0,0,0-.123.246c.123,1.107.123,2.215.246,3.2a13.223,13.223,0,0,1,0,2.215v2.83c0,.984.123,3.2,0,4.922s-.123,2.707-.123,4.06-.369,1.6-1.353,1.6a5.045,5.045,0,0,1-2.707-.246H242.6l-1.23.369h-13.78c-.861,0-1.846.369-2.707-.246s-.984.123-1.476.123l-1.6.246c-.492,0-.738-.246-.984-1.107l.492-.369-.369-.492a1.969,1.969,0,0,1-.246-.861c0-.984.123-1.969.123-3.076V112.79a33.378,33.378,0,0,0-.492-5.045,1.6,1.6,0,0,0-1.23-1.476l-1.846-.369-5.045-.369h-3.445l-1.476-.246c-.369-.123-.738-.492-1.107,0s-.984.246-1.476.492a1.606,1.606,0,0,1-1.6-.369l-.369-.369M182.062,51.024l-1.107-1.107-.738-.369c-.492-.123-.492.123-.492.369l1.107.861c.492.492.738.615,1.23.246m52.292,34.82c-.246,0-.615,0-.615.492s.492.615.738.615a.574.574,0,0,0,.615-.615c0-.492-.369-.492-.738-.492M181.693,93.6a.984.984,0,0,0-.738-.861.451.451,0,0,0-.492.492c0,.246.492.861.738.738l.492-.369m58.69,7.875a3.936,3.936,0,0,0,.738-.984c.123-.369-.246-.492-.492-.615a.738.738,0,0,0-.615.738c0,.246.246.369.492.738M234.6,117.465l.369.861h.369a2.215,2.215,0,0,0,.123-.984c0-.246-.369-.369-.492-.492l-.369.615M198.3,59.883l.738-.615c.123-.246-.369-.615-.738-.492l-.615.492.615.738m2.215,34.2.369,1.107.369-.369.369-.615-.738-.246h-.369m33.221,14.15a8.237,8.237,0,0,1,.123.984c0,.615.123.615.615.369s-.246-1.353-.861-1.353M196.458,82.153c.246-.861.123-1.107-.246-1.23h-.492a.492.492,0,0,0,0,.492l.738.615m45.894,27.438c-.615-.615-.738-.615-1.23.123s.615.615,1.23-.123m-53.03,10.089c.615-.615.492-.738-.492-1.23a1.107,1.107,0,0,0,.492,1.23M239.4,77.477l.246-.861c-.492-.123-.861-.246-1.107.369l.984.615M225.987,99.5c.123.492.246.861.738.984s-.123-1.23-.738-.984M201.379,73.54l-.369-1.23c-.246.246-.615.369-.615.492s.369.492.984.738m31.006,42.08.369-.492c.123-.246-.246-.738-.492-.615s-.369.246-.246.369a3.694,3.694,0,0,0,.369.738m-52.046,11.2c-.246-.492-.492-.615-.738-.246a.615.615,0,0,0,0,.615c.369.369.615.123.861-.246M195.1,90.15v.984l.861-.738V90.15h-.984m-16-4.552c.738-.615.861-.861.246-1.353l-.246,1.353m60.166-31.129v.246l.615.369.369-.246c-.123-.123-.123-.369-.246-.369h-.738m-2.83,46.017c-.246-.615-.738-.615-1.23-.369s.738.738,1.23.369M189.075,110.7c-.123-.492-.369-.738-.738-.492a.492.492,0,0,0-.123.369c.246.369.492.369.861.123m50.938,1.969-.738-.615c-.123.738-.123.984.246,1.107l.369-.492m-3.076,9.966-.615-.369-.492.492.492.246.615-.369M205.44,77.477a.861.861,0,0,0,.369.984h.492a1.353,1.353,0,0,0-.123-.492l-.615-.492m37.4,32.359.984.492c-.123-.861-.369-1.107-.984-.492m-3.2-24.485c0-.984-.123-.984-.861-.615l.861.615M181.447,112.3a.738.738,0,0,0,.246-.861l-.369-.246a.492.492,0,0,0-.123.369l.246.738" transform="translate(40.516 9.512)"/><path class="c" d="M322.436,42.765a1.723,1.723,0,0,1,1.477-.738,9.1,9.1,0,0,0,2.83,0h.492a.615.615,0,0,0,.861.246l.369.246a1.723,1.723,0,0,1,1.477-.369h2.338c.492,0,.984-.246,1.477.123h.369a10.7,10.7,0,0,1,3.2-.246l1.723.246c.246-.369.861-.369,1.477-.369h7.259a1.23,1.23,0,0,1,1.23.492,1.23,1.23,0,0,0,.861.369l1.353-.246,1.107-.246c.246.492,0,1.23.861,1.353s.984-.861,1.723-.984l1.723-.246a3.691,3.691,0,0,1,2.338.123.984.984,0,0,0,1.23-.246l.738.615.246-.615a1.026,1.026,0,0,0,1.723.492,5.044,5.044,0,0,1,0,3.445c-.246.492-.369.738.246,1.107s.246.492.246.861v7.628c0,2.584.123,3.568.123,5.291a5.051,5.051,0,0,1-.246.984,5.167,5.167,0,0,0-.123.984,4.618,4.618,0,0,0,.123,1.23c.123.492-.984-.246-1.107.246a.738.738,0,0,1-.615.369H359.84l-.246-.246c-.615-.738-.738-.738-1.6-.492s.738.123.861.615a2.215,2.215,0,0,1-2.461-.369l-1.477.984h-.738a12.673,12.673,0,0,0-4.06-.123h-5.045a1.6,1.6,0,0,0-1.477,1.476v3.076c0,1.107-.246,3.937-.246,5.906s.123.738.738.738H349.5c.492,0,.984.123.984.738v.246h.246c.492-.984.615-1.107,1.723-.738a1.107,1.107,0,0,0,.984,0h.492c1.353.492,2.707-.246,4.06-.246h1.353a1.6,1.6,0,0,1,1.353,1.353,18.7,18.7,0,0,1,.615,4.8c0,2.707-.123,5.537-.123,8.244s.123,3.568.246,5.414-.369.738-.615,1.107.123,1.23,0,1.846-.369.369-.615.369h-3.937c-.615,0-1.23-.369-1.846,0s-.738,0-1.107,0l-1.107-.246a2.584,2.584,0,0,1-3.322.123c-.492.246-.861.738-1.476.738s-.984.984-.861,1.476a1.107,1.107,0,0,1-.369.984,1.846,1.846,0,0,0-.492.861,20.672,20.672,0,0,0-.123,5.168c.123,1.23.123,2.584.123,3.814a3.445,3.445,0,0,1-.246.861,1.476,1.476,0,0,0,1.353.615h15.134c.861,0,1.107.246,1.353.861a.861.861,0,0,1,.123.492,8.858,8.858,0,0,0,.123,3.2c0,.492-.123,1.107-.123,1.723v5.414a7.136,7.136,0,0,1-.492,3.322,1.091,1.091,0,0,1,.738,1.23c0,.615.246,1.23-.123,1.846a.247.247,0,0,0,0,.123c.615,1.107-.123,1.846-.492,2.83a.861.861,0,0,1-.861.615h-.246a7.751,7.751,0,0,0-2.338.123.984.984,0,0,1-1.353-.615l-.492.615h-.615l-2.215.246h-1.107a5.291,5.291,0,0,0-1.477,0,2.83,2.83,0,0,1-2.83-.492h-.246a.984.984,0,0,1-1.477.246H342a3.076,3.076,0,0,0-2.584.369,4.183,4.183,0,0,1-3.814,0h-5.168a5.168,5.168,0,0,1-1.476-.123.738.738,0,0,0-.738,0h-.738a6.521,6.521,0,0,0-2.707-.123,2.215,2.215,0,0,1-1.476-.615,2.092,2.092,0,0,1-.615-1.723c0-1.6.123-3.2,0-4.922a18.949,18.949,0,0,0-.123-3.691,5.9,5.9,0,0,1,0-1.476,13.775,13.775,0,0,0,0-1.969,6.029,6.029,0,0,1,.369-3.814,9.085,9.085,0,0,1-.246-1.476,10.826,10.826,0,0,1,0-1.107q-.123-6.029-.246-12.058c0-.492-.123-.861-.123-1.353s0-.984.615-1.107l.369-.246V100.1c-.861-.369-.861-.369-.861-1.353s-.123-1.353-.123-2.092a4.677,4.677,0,0,1,0-1.6,6.888,6.888,0,0,0,0-2.461V78.57c0-2.707.246-5.291.369-8a1.477,1.477,0,0,0-.123-.861,2.953,2.953,0,0,1-.246-1.476c0-.984.246-1.969.246-2.953V60.237a76.051,76.051,0,0,1-.123-8.121c.246-2.215.123-4.429.246-6.644s0-.861.492-1.107-.123-.615-.369-.861m7.874,36.3c0,.615.615.615,1.107.861s1.107-.123.984-.615a5.043,5.043,0,0,0-.492-1.6h-.615a1.477,1.477,0,0,0-.861,1.476m20.055,39.988a1.477,1.477,0,0,0-.123-.492h-.492l-.369.369c.123.492-.123.738-.369,1.107s0,.246,0,.369l1.353-1.107M328.342,69.465a3.077,3.077,0,0,0,.246.615l.369.246.246-.369c.123-.492-.123-.615-.861-.492" transform="translate(74.243 9.649)"/><path class="c" d="M387.8,64.293a6.151,6.151,0,0,1-.246-2.953,1.477,1.477,0,0,0-.123-.861,4.306,4.306,0,0,1,.123-3.076c0-.123.123-.246,0-.246s-.123-1.969-.369-2.953a2.092,2.092,0,0,1,.246-1.107,1.477,1.477,0,0,0,0-.984,7.878,7.878,0,0,1-.123-1.6v-.861a11.777,11.777,0,0,1,0-2.092c.123-.615.123-2.092.246-3.076a1.477,1.477,0,0,0-.123-.615,1.846,1.846,0,0,1,.492-1.969h.861l1.846.369h.984a6.768,6.768,0,0,1,1.723-.123,29.039,29.039,0,0,1,3.2,0c.861.123,1.722-.246,2.584-.123s1.107.369.738,1.107-.123.369,0,.492.123,1.476.246,2.215a12.175,12.175,0,0,1-.123,1.846,14.155,14.155,0,0,1,0,2.707,24.979,24.979,0,0,0,0,4.183,7.629,7.629,0,0,0,.123,2.707c.123.246-.123.738-.246,1.23l-.615-.369v-.123l.492.492a.984.984,0,0,1,.492,1.107,13.554,13.554,0,0,0-.246,2.215.983.983,0,0,0,0,.492,1.6,1.6,0,0,1,0,1.353,3.325,3.325,0,0,0,0,.984c0,1.107.123,2.215.123,3.2a7.259,7.259,0,0,1,0,1.23,1.845,1.845,0,0,0,.123,1.353.369.369,0,0,1,0,.246,6.153,6.153,0,0,0-.123,2.584V76.72a25.3,25.3,0,0,0,0,3.076.861.861,0,0,1-.615.984h.615c-.123.738-.246,1.353-.369,1.969a2.7,2.7,0,0,0,.123.738h.123c-.369.615.246,1.23.123,1.846a18.209,18.209,0,0,1-.123,2.461.615.615,0,0,0,0,.369,3.937,3.937,0,0,1,0,2.338,3.2,3.2,0,0,0,0,.492,3.935,3.935,0,0,1,0,.984c-.123.369-.246.615.123.861s.123.246.123.492v1.107a.984.984,0,0,0-.246,1.476,1.476,1.476,0,0,1,0,.984,9.6,9.6,0,0,0,.123,2.584V103.3a2.093,2.093,0,0,1-.246.615c0,.369.615.615,0,.984s0,.123,0,.246a8.98,8.98,0,0,1,.369,3.076c0,.861-.123,1.723-.123,2.461s.123,1.846.123,2.83.123.369,0,.492a8.8,8.8,0,0,0-.123,2.092,3.688,3.688,0,0,1-.123,1.353,3.2,3.2,0,0,0,0,1.353,16.134,16.134,0,0,1,0,1.846,6.635,6.635,0,0,0,0,1.107,2.584,2.584,0,0,1-.123,1.723v.369c0,1.353.123,2.584.123,3.937a3.938,3.938,0,0,0,.123.615c0,.246.246.492.123.615a8.881,8.881,0,0,0,0,1.846,14.394,14.394,0,0,1-.492,2.461c0,.123-.369.246-.615.369l.615.738a1.969,1.969,0,0,1-2.953-.369c-.369,1.107-1.107.861-1.846.738a5.044,5.044,0,0,0-1.846,0,4.8,4.8,0,0,1-2.215.123h-6.4c-.615,0-.984,0-1.353-.615s-.615-.738-.492-1.353-.246-.615-.246-.984a40.725,40.725,0,0,0-1.107-5.045,6.521,6.521,0,0,1,0-1.846,2.092,2.092,0,0,1-.492-1.846,4.674,4.674,0,0,0,0-1.107l-.738-4.429-.492-3.2c0-.246-.246-.369-.246-.615a9.115,9.115,0,0,1-.123-.984v-.615l-.615-3.691-.615-3.568a1.723,1.723,0,0,1,0-.738c.123-.615.246-1.107-.369-1.476a.615.615,0,0,1-.123-.492c0-.492.123-1.107.123-1.723a1.6,1.6,0,0,1-.615-1.6c0-.492-.123-.861-.123-1.353V95.422c0-.861-.738-.738-.615-1.353a1.845,1.845,0,0,0-.123-.615l-.615-2.83a1.968,1.968,0,0,0,0-.369l-.984-2.461a.933.933,0,0,0-.246.492c0,.123.123,1.353.123,2.092s-.246.984-.246,1.476v2.953a5.66,5.66,0,0,0,.123,2.461.492.492,0,0,1,0,.369,16.122,16.122,0,0,0-.246,3.445,29.679,29.679,0,0,0,.123,4.676,15.038,15.038,0,0,0,.123,2.707.488.488,0,0,1,0,.123c-.615,1.723.123,3.445-.123,5.168a19.646,19.646,0,0,0,0,3.814,31.978,31.978,0,0,1,0,3.937,11.935,11.935,0,0,0,.246,2.953,1.24,1.24,0,0,1-.369,1.353,11.562,11.562,0,0,1,.492,1.969,18.58,18.58,0,0,1-.123,3.445c-.123.738.369,1.476-.246,2.215s0,.492.123.738l-.615.615h-.984c-.492-.123-1.107-.369-1.6.246h-.123a11.937,11.937,0,0,1-2.461,0,7.259,7.259,0,0,0-1.969.123,2.092,2.092,0,0,1-1.846-.615c-.369.738-.984.369-1.353.369l-1.107-.861a.861.861,0,0,1-.246-.615c0-.984.123-1.969.123-2.953a1.231,1.231,0,0,0,0-.369,13.9,13.9,0,0,1,0-4.675c0-.246-.123-.492-.123-.738v-2.338a2.462,2.462,0,0,0,0-.738,7.875,7.875,0,0,1-.123-2.584q0-4.614,0-9.228v-5.291a6.135,6.135,0,0,1,.123-1.6,12.412,12.412,0,0,0-.123-1.353c0-.123-.123-.369,0-.492a.984.984,0,0,0,0-.984h0a14.887,14.887,0,0,0,.123-2.461c-.123-.738.369-1.353,0-2.092l.246-.492a1.476,1.476,0,0,1-.369-1.476,10.211,10.211,0,0,0-.123-2.83c0-.738,0-.738.615-1.23s-.738-.861.246-1.107c-.861-.738-.615-1.723-.615-2.584a9.473,9.473,0,0,0-.123-1.6c-.123-.492.246-1.107.246-1.6a4.308,4.308,0,0,1-.246-.984V78.074a2.83,2.83,0,0,1,.246-.861,7.01,7.01,0,0,1-.246-1.353c0-1.969,0-3.814,0-5.783s-.123-2.707,0-3.937,0-2.584,0-3.937.123-1.846.123-2.707-.123-1.23-.123-1.846a14.022,14.022,0,0,1,0-2.461,10.7,10.7,0,0,0,0-3.322c0-.369.246-.861.123-1.107s.369-1.6-.123-2.338,0-.246,0-.369a4.835,4.835,0,0,0,.123-2.461c-.369-.861.246-.861.615-1.23h-.615a18.09,18.09,0,0,1,0-1.846.549.549,0,0,1,.492-.369h9.474a2.461,2.461,0,0,1,.861.369l1.723-.246h2.83a1.6,1.6,0,0,0,1.6,0,.861.861,0,0,1,.738.123l.861.246a.984.984,0,0,1,.615,1.107,7.013,7.013,0,0,0,.492,2.707,8.614,8.614,0,0,1,.123,1.6.74.74,0,0,0,.123.492,2.457,2.457,0,0,1,.246,1.476,3.815,3.815,0,0,0,.246,1.353,3.076,3.076,0,0,1,.123,1.846.492.492,0,0,0,0,.369,10.087,10.087,0,0,1,.615,3.076,6.272,6.272,0,0,0,.246,1.353,1.107,1.107,0,0,1-.123,1.107,9.978,9.978,0,0,1,.369,1.107c.123.369,0,.738.123,1.107a12.75,12.75,0,0,1,.369,1.476,1.723,1.723,0,0,0,.123,1.846,4.183,4.183,0,0,1,.369,1.723c0,.369.369.738-.123.984a1.23,1.23,0,0,1,.123,2.092,4.919,4.919,0,0,1,.492.984,15.254,15.254,0,0,1,.246,1.6l.246,1.353a6.769,6.769,0,0,1,.246,1.6,9.966,9.966,0,0,0,.738,3.937c0,.123.123.246.123.369s.246,2.338.369,3.445a11.19,11.19,0,0,0,.615,1.969,1.353,1.353,0,0,0,.738-1.23V75.367a7.638,7.638,0,0,0,0-1.107c0-.369-.246-.615.123-.861s0-.246,0-.369a13.531,13.531,0,0,1-.246-1.969,10.581,10.581,0,0,1,.246-3.2,2.584,2.584,0,0,0-.246-2.092V65.4Zm-17.472,69.025-.369.861a.492.492,0,0,0,.123.369h.492a.492.492,0,0,0,.123-.369l-.369-.861m21.04-30.76-.861-.369c-.369.246-.246.492,0,.738s.615.123.861-.369m3.445,7.136v.246l.738-.246c.123,0,0-.369,0-.492h-.246l-.492.492" transform="translate(83.316 9.654)"/><path class="c" d="M140.2,51.428a.451.451,0,0,0,.492-.492l-.492-.369-.984-.246a3.322,3.322,0,0,1,.369-.738l.738-.492c.123,0,.246.369.369.615s.492-.246.369-.492.246-1.107.738-1.476l.492-.492a5.045,5.045,0,0,1,1.969-2.092l1.6-.984.246.369.615.369.369-.615a1.6,1.6,0,0,1,1.846-.738l-.615.369a.984.984,0,0,0,1.107-.123l1.23-.738a4.306,4.306,0,0,1,2.584-.615c.369,0,.738.123,1.107-.246h.492a3.322,3.322,0,0,0,1.6,0h1.476c.123,0,.246.369.369.492l1.476-.369,1.723.246v.615c.369-.123.369-.123.738-.861h.123l.369.492.369-.615,1.353.369-.369.615h.123l.492-.246a.738.738,0,0,1,.984-.246l2.092.738L168,43.8a3.814,3.814,0,0,1,.123.738l.738-.492c.369-.123.738,0,.738.369s.246.492.615.615a7.382,7.382,0,0,1,2.83,1.6,1.968,1.968,0,0,1,.492.984,1.723,1.723,0,0,0,.738,1.23l.615.369a5.168,5.168,0,0,1,2.707,3.445c.246.615.738,1.107.615,1.846l.369.369a1.353,1.353,0,0,1,.615,1.23,5.659,5.659,0,0,0,.246,1.353,3.814,3.814,0,0,1,0,3.2,1.968,1.968,0,0,0-.123.492l.615.492-1.107.615c.123.615.123.615.984.492a2.215,2.215,0,0,1,.123.615,23.256,23.256,0,0,0,.246,7.136,1.969,1.969,0,0,1-1.23,2.461l.738.861.492.615c.246.615,0,.984-.615,1.23l-.492.492h.984c0,.615.123,1.23.123,1.846a1.6,1.6,0,0,1-1.23,1.6,1.963,1.963,0,0,1-.984-.369c-.369-.246-.615,1.107-1.353.246s-.861.615-1.107.123h-3.445c-.369,0-.615.123-.861-.246h-.492c-.615.492-1.353.369-2.092.738s-1.353,0-1.6-.861v-.369l-.369.369c-.984.861-1.23.861-1.846-.123l-.861.246a5.906,5.906,0,0,1-.369-3.568,1.722,1.722,0,0,0,0-.984,7.877,7.877,0,0,1,0-1.969,4.428,4.428,0,0,0,0-1.846,7.014,7.014,0,0,1-.123-2.584,4.922,4.922,0,0,1,.615-1.476,3.322,3.322,0,0,1-.492-2.83,3.691,3.691,0,0,0-.369-1.969,4.8,4.8,0,0,1-.369-1.23,2.215,2.215,0,0,0-1.23-1.723l-1.107-.615a2.83,2.83,0,0,0-1.846-.369h-.615a2.338,2.338,0,0,0-2.215.369h-.246c-2.092.615-2.707,2.461-3.2,4.306a3.568,3.568,0,0,1-.861,1.969l.615.492a3.937,3.937,0,0,0-.861,3.445c.861-.369,0-1.107.615-1.476v.492a41.83,41.83,0,0,1,0,7.751,1.969,1.969,0,0,1-.369.861c-.369.615-.492.861.123,1.476a1.476,1.476,0,0,1,.369,1.476l-.369,1.107a1.969,1.969,0,0,0-.123,1.107c.615,1.353.123,2.707.123,4.06a8.86,8.86,0,0,0,0,2.461,8.366,8.366,0,0,1,.246,2.338,1.722,1.722,0,0,1-.123.615,3.937,3.937,0,0,0,0,2.584,7.138,7.138,0,0,1,.123,1.723c0,.246-.123.615-.123.861s.246,3.445.369,5.168.123.492-.492.861.492.492.123.861-.123.615,0,.861a2.338,2.338,0,0,1,.123,2.584c-.492.738-.369.738.246,1.353l-.369.246-.492.369.738.615c.369.123.369.369.369.738s-.369,2.215-.369,3.322a2.337,2.337,0,0,0,.123.861l1.107,3.691v.369c.369,1.107.369,1.107,1.476.615l.246.615c.246.615.615.738,1.23.492l.738-.369h.492c.492.492.861.123,1.353,0l2.338-1.353a4.306,4.306,0,0,0,1.723-2.83c.123-.738.123-.738.492-.984s-.246-3.2,0-4.676h.984c.123,0,.369-.246.492-.492a.492.492,0,0,0,0-.492h-.492l-.738.369a1.97,1.97,0,0,1-.246-.492,3.2,3.2,0,0,1,0-.984,3.445,3.445,0,0,0,0-2.461v-.246c0-.123.984-.123.861-.861l-.861-.246a.922.922,0,0,1,.123-.615c.123-.123-.246-.861-.123-1.353s.369-.861,0-1.23,0-.369,0-.615.123-.246.123-.369.123-.861.615-.984a1.23,1.23,0,0,0,.861-.615.861.861,0,0,1,.615-.369h3.937c.984-.492,2.215-.492,4.06.246l.984-.369.369.984c.369.123.738-.123,1.107-.369l.861-.615h.492v.492a.985.985,0,0,0-.246.492h.369l.492-.615a.738.738,0,0,1,.984-.246c.369.123.738.492.615.861a3.377,3.377,0,0,0,.246,1.476,8.612,8.612,0,0,1,.492,2.215,12.181,12.181,0,0,1-.246,4.429,1.6,1.6,0,0,0,0,.738,17.348,17.348,0,0,1,.246,5.414h0c0,.861.492,1.846,0,2.707s0,1.476.246,2.215a1.6,1.6,0,0,1,0,.615,23.377,23.377,0,0,1-5.537,11.689,2.953,2.953,0,0,1-1.353.861c-.492.123-.984.246-.984.984a.615.615,0,0,1-.246.369l-1.107.861-3.076,1.23c-.246-.246-.369-.615-.615-.615a1.6,1.6,0,0,0-.861.369,7.289,7.289,0,0,0-.492.738L165.911,133h-.246v1.969l-2.215.492a41.467,41.467,0,0,1-7.013.738h-.984c-.615-.123-.615-.123-.738-.738H154.1c-.246-.123-.369-.369-.615-.615l-.369.492a.615.615,0,0,1-.738.246l-2.215-.738-1.723-.615a5.167,5.167,0,0,1-2.338-1.476l-.492-.369-.369.738c-.615-.246-.492-1.6-1.6-.861l-.492-1.969-.984.369a1.846,1.846,0,0,1-.861-1.23l-.492-1.107-.369-.369c-1.107,0-1.6-.861-2.092-1.6l-.369-.615a24.732,24.732,0,0,1-2.338-6.521,18.355,18.355,0,0,1-.246-2.584,16.981,16.981,0,0,0-.369-2.461,5.906,5.906,0,0,1,.246-3.445l.615-1.476a.738.738,0,0,0-.369-1.107.492.492,0,0,1-.369-.615c.123-2.092.123-4.06.246-6.152a4.551,4.551,0,0,1,.369-1.107q.144-.424.246-.861c-.246-.246-.615-.369-.738-.615a.738.738,0,0,1,.246-.738c.246-.123.738-.246.738-.492s-.369-.369-.738-.492a13.165,13.165,0,0,1-.123-3.691c0-.984,0-1.969,0-3.076V88.34h.492a.615.615,0,0,0,.738-.492c.123-.369,0-.492-.246-.615l-.738-.615c0-.615-.123-1.23-.123-1.969a1.23,1.23,0,0,1,0-.615,2.092,2.092,0,0,0,.123-1.723,9.474,9.474,0,0,1,.123-4.06,1.723,1.723,0,0,0-.123-1.23,2.461,2.461,0,0,1-.123-1.107V70.868c0-1.723.123-2.953.123-4.429s0-.246.123-.246.369-.738.123-1.107l-.246-.369V64.47a1.051,1.051,0,0,0,0-1.6.984.984,0,0,1,.492-1.6h.246l.369-.369c0-.123-.123-.492-.246-.492a.738.738,0,0,1-.615-.738,12.919,12.919,0,0,1,.123-2.83,24.606,24.606,0,0,1,1.107-3.2l.369-.492.246.984,1.969-.369a.861.861,0,0,0,.738-.984c0-.861.123-1.723.123-2.461Zm25.346,53.645,1.969-.861c.369-.246.246-.615.123-.984a.861.861,0,0,0-.738-.246,1.846,1.846,0,0,0-1.476,2.092M136.628,82.926c-.123.615-.615,1.23-.123,1.846a1.846,1.846,0,0,0,1.846.246l-.492-.984h-.738c.123-1.23.123-1.23-.492-1.353m33.221,25.1a7.014,7.014,0,0,1,.123,1.107c0,.492.123.861.615.861a3.69,3.69,0,0,0,.492-1.23,1.6,1.6,0,0,0-.492-1.107c-.369-.246-.615,0-.615.369m-1.723-1.23c.861-.246.369-.984.615-1.353a3.936,3.936,0,0,0,0-1.476c-.615.369-.984.615-.861,1.23l.246,1.6M166.9,56.719a1.182,1.182,0,0,0-1.107-.738.984.984,0,0,0-.615.492.615.615,0,0,0,0,.615h.738l.984-.369m.123,18.825c.246-1.107.123-1.23-.492-1.6s-.369,1.353.492,1.6m-.615,32.113c0-.861-.246-.984-1.107-.984s-.492.246-.369.615l1.476.492M169.11,51.3c-.738.246-.984,1.107-.492,1.969s.615-.492.369-.861a.861.861,0,0,1,.123-1.107M139.7,56.227c-.369.861.615,1.23.492,1.846s.492-1.476-.492-1.846m8.49,4.922c-.369.615-.369.738.369,1.476s.492-.984-.369-1.476m-7.136,18.579c.615-.369.738-.738.369-1.6l-.615.369.246,1.23m16.856-35.312c-.615,0-.615,0-.615.246s0,.984.615,1.23Zm13.9,58.2-.492-.492a.451.451,0,0,0-.492.492c0,.246.246.369.369.492l.615-.615m-35.8-31.744c.246-.492.984-.492.984-.984s-1.23.123-.984.984m36.051-8.736,1.23-.738-.738-.738-.492,1.476m-6.89-7.505c-.492.246-.369.615-.492.984s0,.492.246.492a.615.615,0,0,0,.369-.492,4.677,4.677,0,0,0-.123-.984M150.285,44.046c-.738.492-.861.738-.123,1.23s.246-.738.123-1.23m22.024,55v.246h.738c.369,0,.369-.369.246-.615H172.8l-.492.369m1.723-25.715,1.107-.738c-.246-.492-.615-.369-.861-.123a.615.615,0,0,0-.369.861m-3.076,1.723c.615,0,1.107-.369,1.23-1.353l-1.23,1.353m-34.943-5.537c.738-.492.738-.492.246-1.107s-.615.492-.246,1.107m12.55-5.66a.492.492,0,0,0-.615-.369l-.369.369a5.411,5.411,0,0,0,.369.984h.123V64.1ZM152.13,46.26a.615.615,0,0,0-.984.246c-.123.246-.123.492.246.738l.738-.984m-8.613,26.453v-.246H142.9c-.123.123-.123.492-.123.738h.246l.615-.738m22.147,38.019,1.353.492a.922.922,0,0,0-.123-.615,1.107,1.107,0,0,0-1.23.123M165.3,49.459h-.246c-.123.123-.369.369-.369.492s.246.369.369.615h.246ZM141.918,86.74a1.476,1.476,0,0,0,0,1.6,1.353,1.353,0,0,0,0-1.6" transform="translate(31.075 9.723)"/><path class="c" d="M289.946,111.948c-.246-.123-.246-.369-.246-.738a12.426,12.426,0,0,0,.123-2.83,37.987,37.987,0,0,1,.123-5.291c.123-1.723-.246-1.476.246-2.215s-.246-1.23-.123-1.846a23.238,23.238,0,0,1,0-3.2,8.122,8.122,0,0,0-.123-2.338c.615-.246.615-.369.492-.984s-.615-1.23-.123-1.969,0-.369-.123-.615-.123-1.353-.246-1.969.246-.369.369-.615a3.445,3.445,0,0,1-.123-.984c.123-1.107-.246-2.215-.123-3.2a34.072,34.072,0,0,1,.246-4.429,8.734,8.734,0,0,0-.246-2.338,6.879,6.879,0,0,1,0-.738c0-.246,0-.615,0-.861a15.852,15.852,0,0,1,0-2.461,5.659,5.659,0,0,0,0-2.092,2.952,2.952,0,0,1,0-1.353,1.354,1.354,0,0,0,0-.861c-.246-.492,0-.861.123-1.353l.738.369h0l-.246-.369c-.738-.246-.738-.984-.738-1.476a2.783,2.783,0,0,1,.492-2.092c.615-.615-.984-.984-.369-1.6s-.369-.492-.246-.615a4.428,4.428,0,0,0,.369-1.969l.246-.369c-.738-.123-.246-.738-.492-.984l.738-.369-.738-.369.369-.984a1.046,1.046,0,0,1-.369-.615c0-.246-.123-2.215-.123-3.322a1.6,1.6,0,0,1,.246-.738,1.107,1.107,0,0,0,0-1.23c-.369-.861,0-1.723,0-2.584s.246-.246.369-.369-.369-.738.123-.984-.246-1.23-.492-1.846l1.723-.861.492.369.492-.369c.369.123.246.984.984.615v-.738l1.107.861c.615,0,.738-1.476,1.6-.492a.861.861,0,0,1,1.23-.123,6.275,6.275,0,0,0,1.969.123c.369.492.492.492,1.353-.492l1.107.615c.246.123.492.246.246.615s.123.369.246.369a2.215,2.215,0,0,1,1.107,2.215h-.492v.492l.615-.246c0,.738.369,1.353-.123,2.092s.123.369.246.738h-.615c-.246.492.246.369.369.492a12.06,12.06,0,0,1,.123,2.707,11.93,11.93,0,0,0,0,2.461,1.107,1.107,0,0,0,0,.492.738.738,0,0,1-.123.861.738.738,0,0,0,0,.984,1.477,1.477,0,0,1,.246,1.23,23.861,23.861,0,0,0-.246,2.83c-.123.246.246.615.369.984a1.723,1.723,0,0,1,0,.861,5.783,5.783,0,0,0-.123,2.584l.246,1.353c-.615.615-.246,1.476-.246,2.338s.246.984,0,1.476,0,1.107,0,1.6a6.152,6.152,0,0,0,.123,1.23c0,.492.123.984.123,1.353a2.215,2.215,0,0,0,.615,1.846c.246-.615.861-.984.738-1.723a2.339,2.339,0,0,1,.246-.861c.369-1.23.246-2.584,1.107-3.568h0c-.369-1.23.615-2.215.492-3.445a1.23,1.23,0,0,1,.123-.738,7.507,7.507,0,0,0,.492-2.215c.123-.369-.123-.738.123-1.107a8.614,8.614,0,0,0,.615-2.707,6.03,6.03,0,0,1,.369-.861v-.369a24.976,24.976,0,0,1,1.23-5.168,5.783,5.783,0,0,1,.615-1.969V52.52c0-.123-.123-.369,0-.369a14.715,14.715,0,0,0,.738-2.215c.246-.738.615-.738,0-1.353h.246l.615.369V46.86h.738v-.246a1.846,1.846,0,0,1-.123-2.092l.246-.738h.984l-.492-.246c.246-.492.615-.246,1.107-.246v.861l1.23-1.107c.246,0,.615-.123.861.246H318l.369-.246h4.552c.246,0,.615.369.984.615s.369-.492.246-.861h2.215v.492a2.462,2.462,0,0,1,.369.861c0,.615-.615.369-.984.492a1.23,1.23,0,0,0,.123.369.861.861,0,0,1-.123,1.353v.246c.123.615-.369.984-.738,1.476s-.369.738.123,1.107l-.738.492c0,.492.123.861.123,1.353l-.492.369c.492.861-.369.984-.861,1.23a1.723,1.723,0,0,1,.246,2.338l-.369.738a3.075,3.075,0,0,0-.492,1.353,4.553,4.553,0,0,1-.615,2.215,2.461,2.461,0,0,0-.492,1.6c0,.246-.246.492-.492.861a.984.984,0,0,1,0,1.23,5.784,5.784,0,0,0-.369.984,3.564,3.564,0,0,1-.246.738c-.246.369-.369.492-.246.984s-.615,1.107-1.107,1.107a.765.765,0,0,0-.738,1.107l.492.984c.246.492,0,.984-.123,1.476a4.677,4.677,0,0,1-.615.984,3.2,3.2,0,0,1-1.6,2.953c.123.369.492.861.492,1.107s-.492.615-.738.984l.246.246a4.307,4.307,0,0,0-.369.984,2.215,2.215,0,0,1-.861,1.723c.861,1.23-.246,1.723-.984,2.461s.492.615,0,1.353l.492,2.584c.123.369.246.738.369,1.23a6.179,6.179,0,0,1,.246,1.476v.246a12.208,12.208,0,0,0,.984,3.322,4.8,4.8,0,0,1,.369,2.092,6.642,6.642,0,0,0,.492,1.6h-.492l.615.738a2.707,2.707,0,0,1,.615,2.092,2.953,2.953,0,0,0,.492,1.969c.369.369.123.861-.246,1.107l.246.861c0,.123,0,.246.123.246a1.846,1.846,0,0,1,.861,1.969v.861a1.846,1.846,0,0,1,.738,1.6,13.539,13.539,0,0,0,.615,2.584,1.1,1.1,0,0,1,0,.369v.246c.615.246.246.861.492,1.23s0,.861,0,1.23.369.738.369,1.23a1.354,1.354,0,0,0,.615,1.353l-.369.615a1.723,1.723,0,0,1,.861,1.969,4.8,4.8,0,0,0,.615,2.092,5.414,5.414,0,0,1,.492,1.969c0,.615-.246,1.353.492,1.846a.738.738,0,0,1,.123.738c-.246.615.123.984.369,1.476a1.23,1.23,0,0,1,.246.738,2.092,2.092,0,0,0,.246,1.6,23.008,23.008,0,0,1,1.353,5.291c.246.984-.246,1.23-1.23,1.107a2.953,2.953,0,0,0-1.969.123,3.2,3.2,0,0,1-1.846,0,1.353,1.353,0,0,0-.984,0,.861.861,0,0,1-1.23-.123h-.369l-1.107.246a9.1,9.1,0,0,1-4.183-.246,1.476,1.476,0,0,1-1.107-.984c-.369-.861-.738-1.846.123-2.707l-.738-.492v-1.476c0-.492-.369-.369-.369-.861a15.009,15.009,0,0,0-.738-2.584c-.123-.615-.246-1.107-.369-1.723a1.217,1.217,0,0,0,0-.123l-.984-3.076c0-.123-.246-.369-.246-.492a11.862,11.862,0,0,0-.246-1.476,19.823,19.823,0,0,1-.492-2.338c-.246-1.353-.369-2.83-.615-4.183a3.693,3.693,0,0,0-.492-1.107c-.123-.123-.369-.369-.492-.369a.861.861,0,0,0-.492.492l-.615,1.6-.861,2.953a4.921,4.921,0,0,1-.492,1.6c-.738.984-.492,1.969-.615,3.076s.246,1.723-.123,2.584a1.107,1.107,0,0,0,0,.984c.492.492.123.984.123,1.353s-.123.246-.123.369a32.647,32.647,0,0,0,0,3.568,10.248,10.248,0,0,1,.123,1.476c0,.492-.246.738-.984.615a2.83,2.83,0,0,1,.861,3.076l-.738-.246v.738l-3.937-.369c-.123.123-.246.369-.369.369H296.96a8.982,8.982,0,0,0-2.461-.123c-.246,0-.492-.246-.738-.246a2.461,2.461,0,0,1-2.707,0l.615-.738h-.246c-.984.246-1.107,0-.984-.984a1.846,1.846,0,0,0,0-.615.43.43,0,0,0-.123-.246,8.442,8.442,0,0,1,.123-2.338c.246-.861-.123-.738-.123-1.107q.028-.679.123-1.353a5.429,5.429,0,0,0,0-.615v-1.476c0-.492.123-.246,0-.369a6.673,6.673,0,0,1,.123-2.092,4.8,4.8,0,0,0-.123-1.476c0-.246-.246-.615-.123-.861a9.228,9.228,0,0,0,.123-2.707c0-.861-.123-1.723-.123-2.707a28.128,28.128,0,0,1,.246-3.076m2.215-9.474-1.107.369a.615.615,0,0,0-.246.861,2.689,2.689,0,0,0,.615.369h1.107c.492-.615.492-.861-.369-1.723m7.382,23.87c.738.615,1.23.615,1.723-.123a1.107,1.107,0,0,0-1.723.123m4.306-28.914a.393.393,0,0,0-.369.369,1.248,1.248,0,0,0,.738.861c.369.123.492-.123.492-.492s-.246-.615-.861-.615m8.859-40.48c.861-.369,1.23-.738.984-.984a1.107,1.107,0,0,0-.861-.246c-.615.246-.123.738-.123,1.107m3.814,56.229a.615.615,0,0,0,.369-.861l-.492-.246c-.123.246-.246.369-.246.615s.246.369.369.615M293.514,57.811l.984,1.353c.123-1.107,0-1.353-.984-1.353m6.4,41.464c-.246.738-.123,1.107.246,1.23h.492a1.232,1.232,0,0,0-.123-.369l-.615-.738m4.429,2.584c-.246.615,0,.984.615.984l.246-.246c0-.123-.123-.246-.123-.369l-.738-.369M306.31,79.1c.738.615.738.615,1.23.123s-.738-.369-1.23-.123m-7.382-13.78h-.246c-.123.123-.246.369-.369.492s.123.369.246.615h.246v-1.23" transform="translate(66.745 9.861)"/><path class="c" d="M270.335,42.333c.615.369,1.23,0,1.723-.246a2.707,2.707,0,0,1,2.584-.246c.246-.369.738.246,1.107-.123h.492l2.092.492h.369a15.38,15.38,0,0,1,6.029,2.215,7.012,7.012,0,0,1,1.476,1.23,12.062,12.062,0,0,1,1.477,1.353,4.3,4.3,0,0,1,.615,1.476,2.461,2.461,0,0,0,.738,1.23c.123.123.369.246.492.492a23.987,23.987,0,0,1,.738,2.953,5.415,5.415,0,0,0,.369,1.846,3.2,3.2,0,0,1,.246,1.476c0,1.353-.123,2.584-.123,3.937s.123,2.338.123,3.445a26.2,26.2,0,0,1,0,4.306,8.858,8.858,0,0,0,.123,2.092c0,.123.123.369.123.492s-.123,2.953-.123,4.306a4.43,4.43,0,0,1-.246,2.092c-.123.123.123.492.246.738A.79.79,0,0,1,290.144,79h-1.476a9.228,9.228,0,0,1-3.322-.123h-.369l-6.275.246a.738.738,0,0,1-.738-.369l-.738-1.107.738-.246c-.615-.123-.615-.492-.615-.861a28.319,28.319,0,0,1-.123-3.076c.123-1.23-.369-2.461.123-3.691s0-.369,0-.615v-4.8a10.945,10.945,0,0,0,0-1.23c-.123-.861.369-1.723-.246-2.461s-.123-.492-.123-.738a2.092,2.092,0,0,0-2.092-2.461c-1.723,0-2.584.984-2.584,2.83s.123.615-.246.861-.123.246-.123.369a23.949,23.949,0,0,0-.123,3.445,36.44,36.44,0,0,1,.369,3.814c0,1.23.246,1.353.246,2.092a19.808,19.808,0,0,1-.369,4.552,5.662,5.662,0,0,0,.123,2.215,3.691,3.691,0,0,1-.123,1.846,4.552,4.552,0,0,0-.123,2.338,2.338,2.338,0,0,1-.246,1.723,3.443,3.443,0,0,0-.246.738h.738c0,.369-.123.738-.123.984a1.107,1.107,0,0,0,.123,1.23,1.6,1.6,0,0,1,.123.984,8.125,8.125,0,0,0-.123,1.723c.123.615-.123.246-.123.369s-.246.246-.123.369-.123,1.6.246,2.338a1.229,1.229,0,0,1,0,.492c0,.984.123,1.846.123,2.83a5.284,5.284,0,0,1-.246,1.107,2.584,2.584,0,0,1-.123,2.584c.492.246.369.738.369,1.23v10.827a8.99,8.99,0,0,1-.246,1.23,2.091,2.091,0,0,1,.246.615v5.66a1.6,1.6,0,0,0,.246.984c.492.492.861,1.107,1.6,1.23A2.9,2.9,0,0,0,277.1,119.6h.738a2.339,2.339,0,0,0-.123-.738,1.353,1.353,0,0,1-.123-1.476,1.6,1.6,0,0,0,.123-.861c0-1.23-.123-2.461-.123-3.568a27.438,27.438,0,0,1-.123-4.675c.246-1.723-.123-3.445.246-5.168a7.011,7.011,0,0,0-.246-2.092h-.123V98.439c0-.861.861-.861,1.353-.738l2.092.369h.369a3.445,3.445,0,0,1,2.584,0h.123c1.23-.492,2.584,0,3.814-.123h2.461c.861,0,.984.246.861.984a.987.987,0,0,0,0,.369,4.429,4.429,0,0,1,0,2.338c-.123.369.123.738.123,1.107s-.123,1.476-.123,2.215v.246s.123,1.6.123,2.338a13.886,13.886,0,0,0,0,1.476,26.753,26.753,0,0,0,.123,3.076,13.534,13.534,0,0,1-.123,3.2q0,.554,0,1.107c0,.369.123.369,0,.369a15.3,15.3,0,0,0,0,2.461c0,.861-.123,1.846-.123,2.83a5.077,5.077,0,0,1-.123,1.107c0,.369-.123.738-.123,1.107s-.369,1.353-.492,2.092a9.6,9.6,0,0,1-2.584,4.8l-.369.615-.492.492-2.461,1.846-.369.246a19.074,19.074,0,0,1-3.445,1.476h-.615a1.231,1.231,0,0,0-.984.246,5.66,5.66,0,0,1-3.2.615,7.872,7.872,0,0,0-1.723.123h-1.107l-1.6-.246a20.671,20.671,0,0,1-5.66-2.215L265.29,134l-2.215-1.846a5.905,5.905,0,0,1-.984-1.23l-1.353-2.338a18.209,18.209,0,0,1-1.723-5.291,7.013,7.013,0,0,1-.246-2.461,41.222,41.222,0,0,0,.246-4.676c0-1.107-.123-2.338-.123-3.445s-.123-2.584-.123-3.814.123-1.969.123-2.953-.123-2.215-.123-3.322a22.735,22.735,0,0,1,.123-2.953,5.562,5.562,0,0,0,0-1.476,21.056,21.056,0,0,1-.123-2.953c.123-1.476-.123-2.953,0-4.306s0-2.953,0-4.429-.123-6.4-.123-9.6V74.323c0-.861-.123-1.107-.123-1.723s-.123-1.353-.123-2.092a9.54,9.54,0,0,1,.123-1.107,5.293,5.293,0,0,1,0-1.353c.246-.615,0-1.353.123-1.969a5.17,5.17,0,0,0,0-1.846,25.952,25.952,0,0,1,0-6.029,4.1,4.1,0,0,0,0-1.23,8.464,8.464,0,0,1,.246-1.6,27.332,27.332,0,0,0,.492-2.707A3.691,3.691,0,0,1,260,50.7l.861-1.107h.123c-.246-.615.246-.861.492-1.23a8,8,0,0,1,2.83-2.83,2.953,2.953,0,0,0,1.477-1.107,3.226,3.226,0,0,1,1.107-.615l1.353-.492a1.286,1.286,0,0,1,1.353-.246c.615.246.492-.123.738-.246m16.733,73.824c.861-.738.984-1.23.246-1.723l-.984.861.738.984" transform="translate(59.534 9.59)"/><path class="c" d="M255.582,118.323h-.369c.123.492.123.984.246,1.476s-.615.738-.861.984a7.013,7.013,0,0,1,.861,4.552,1.231,1.231,0,0,0,.123.984,2.214,2.214,0,0,1,0,1.23,3.692,3.692,0,0,0,.123,2.092,1.6,1.6,0,0,1-.369,1.846,1.23,1.23,0,0,1-.246,1.969.738.738,0,0,1,0,1.107l-.369.246-1.969-.246h-.246l-2.707.492a1.845,1.845,0,0,1-1.23.123,1.477,1.477,0,0,0-.984,0c-.369.246-.615.123-.861-.246a2.707,2.707,0,0,1-2.215.246c-.738-.123-1.6-.615-2.215,0A3.568,3.568,0,0,1,240.941,131a4.675,4.675,0,0,0,.123-1.6c0-1.476-.123-2.83-.123-4.306a3.567,3.567,0,0,1,.369-1.107,2.707,2.707,0,0,1-.246-2.215,2.214,2.214,0,0,0,0-.615c0-1.107,0-2.092,0-3.2s.123-.615.123-.861-.123-2.953-.123-4.552a3.2,3.2,0,0,1,.369-1.969.615.615,0,0,0,0-.615,3.937,3.937,0,0,1-.369-2.584c0-1.107,0-2.338,0-3.445v-1.969c0-.492-.123-.369,0-.492a3.076,3.076,0,0,0,0-2.215,6.029,6.029,0,0,1,0-2.215c.246-1.353-.123-2.707.123-4.06a2.461,2.461,0,0,0-.123-1.476.738.738,0,0,1,0-.369V86.209a1.723,1.723,0,0,1,0-.615c.123-.246.246-.369,0-.615a.738.738,0,0,1-.123-.492c.369-.984,0-2.092.246-3.2a6.276,6.276,0,0,0-.123-2.092c0-.615-.123-1.23-.123-1.846a1.846,1.846,0,0,1,.369-1.476.492.492,0,0,0,.123-.492c-.615-.984-.246-2.092-.369-3.076a16.239,16.239,0,0,1,0-2.461,4.371,4.371,0,0,1,.246-1.23,29.657,29.657,0,0,0,.123-4.306,4.552,4.552,0,0,1,.246-1.23l-.369-.615v-.492a7.762,7.762,0,0,1,.861-1.23c.369-.369-.861-.492-.861-1.107s-.123-3.691-.123-5.414a.984.984,0,0,1,.492-.984c-.615-.492-.369-1.23-.492-1.846a11.687,11.687,0,0,1,.123-1.476c0-.369-.123-.861.615-.984s-.492-1.6-.615-2.215a5.168,5.168,0,0,1,0-1.476c0-.492.369-.615,1.107-.246v-.615c-.492.123-.738-.123-.738-.615a2.584,2.584,0,0,1,.615-2.215l.369-.246c.861.246,1.723-.123,2.461.369l1.23.615-.492,1.6.246.246c.615-.369,1.107,0,1.6.246h.369l-.738-.369c.369-1.107.861-1.476,2.092-.861a2.461,2.461,0,0,0,1.23.492c.492,0,.492.492.123.984s.615.246.492.861l.369-.492v-.369l2.461-.246v.246l-.738.369c.861.615.861.615.861,1.353l.615.246.615.369a1.6,1.6,0,0,1-1.969.123l-.738.861,1.723.861-.615.369c-.615.246-.738.246-.369.861v.246l-.984.492c.738.615.738.615.738.984l.615-.246c.738.246.615.861.492,1.476l.861.615-.369.492c-.246-.246-.615-.615-.984-.123l.615.492L253,55.45a2.092,2.092,0,0,0,1.353,1.23,3.2,3.2,0,0,0-.492.984.984.984,0,0,1-.738.984c.738.369.615,1.107,1.23,1.6a9.35,9.35,0,0,1,1.353,1.6l-.861.369v1.6h.861c-.123.615-.492.615-.738.615a1.23,1.23,0,0,0-1.23.738l-.492.492c.246.123.615.123.738.369s0,.492,0,.738a.861.861,0,0,0,.492.492,1.107,1.107,0,0,1,.861.984.615.615,0,0,0,.123.492c.492.369.369.738.246,1.107s-.369.984.123,1.353a.738.738,0,0,1,.123.492,10.837,10.837,0,0,1-.246,2.092h0a4.553,4.553,0,0,1,0,2.83c-.123.369-.123.738-.246.984s-.492,1.107.123,1.476l-.615.861.369,1.107c.369,0,.492.369.615.861a15.992,15.992,0,0,1,0,4.552,2.094,2.094,0,0,1-.123.861l-.615,2.338a1,1,0,0,1,0,1.476,4.183,4.183,0,0,0-.492.984h.369c.861.246,1.107.615.861,1.353a2.831,2.831,0,0,0-.246,1.23,3.076,3.076,0,0,1-.123,1.6.369.369,0,0,0,0,.246c.492.738,0,1.6.246,2.338a1.374,1.374,0,0,1,0,1.23,11.816,11.816,0,0,0-.246,1.23,5.781,5.781,0,0,0,0,1.107,10.77,10.77,0,0,0,.246,1.969h0a5.53,5.53,0,0,0,0,2.461,9.838,9.838,0,0,0,0,2.338,7.014,7.014,0,0,1-.246,2.092c0,.246-.246.492-.123.738a4.183,4.183,0,0,1,.123,2.338c0,.615.246,1.23-.246,1.846s.123.492.246.738l.246.861" transform="translate(55.461 9.515)"/><path class="c" d="M138.866,50.507v1.6a.861.861,0,0,1-1.107-.123.779.779,0,0,1-.123-1.107,1.476,1.476,0,0,1,1.353-.369" transform="translate(31.667 11.628)"/><path class="c" d="M139.556,49.769l-1.107.492h-.738s-.123-.369,0-.369.492-.492.738-.492Z" transform="translate(31.715 11.382)"/><path class="c" d="M149.049,107.738c.738-.492.738-1.23.615-2.092a15.749,15.749,0,0,1-.123-2.092v-3.076c0-.984-.615-2.092,0-3.076s0-.492,0-.738a15.1,15.1,0,0,1,.123-2.092,29.651,29.651,0,0,0,.369-3.445q-.123-6.521-.492-13.042a5.045,5.045,0,0,0-.984-3.445c1.23-.738,1.23-.738.984-2.215s0-.984,0-1.6l-.246-8.613a2.952,2.952,0,0,0-.123-.738,6.767,6.767,0,0,1,.246-3.691,12.549,12.549,0,0,0,.246-3.076c0-1.107-.246-2.215-.246-3.322V48.8c0-.861-.246-3.814-.246-5.783s.123-7.013.246-10.581,0-5.537,0-8.244.123-1.846,0-2.707-.369-3.445-.492-5.168-.246-1.23-.369-1.723a7.994,7.994,0,0,0,.369-1.107,26.822,26.822,0,0,0,.369-8.244,13.537,13.537,0,0,0-.861-2.953,1.23,1.23,0,0,0-.861-.615A47.247,47.247,0,0,0,136.622.694c-3.568.123-5.045.492-8.613.369s-5.66.246-8.613-.123h-.738c-1.969.615-3.814.123-5.783-.246S111.4.571,110.784.94a45.771,45.771,0,0,0-7.628-.492C99.588.571,96.142.94,92.574.817s-5.783.492-8.736,0H83.1c-1.969.615-3.814.123-5.783-.246a4.306,4.306,0,0,0-1.6.123,50.2,50.2,0,0,0-7.136.123,101.017,101.017,0,0,1-12.3-.123L48.9.2c-2.461-.246-4.922.492-7.382.123h-8.49A101.015,101.015,0,0,1,20.719.2L13.337-.29C10.876-.536,8.415.2,5.955-.167H3.371C2.386.571,1.4.448.91,1.432A6.029,6.029,0,0,0,.172,5.246c.123,1.107.861,2.092,0,3.2s0,.738,0,1.107.123.984.123,1.6C.418,15.7.664,20.134.787,24.687S.664,32.561.664,36.5.418,44.865.295,49.172c0,17.472-.246,34.943.492,52.415a4.194,4.194,0,0,0,.369,2.707.861.861,0,0,1,0,.615c-1.107,2.461-.861,5.168-.861,7.875s-.123,3.691-.246,5.537a4.429,4.429,0,0,0,.369,1.969,5.168,5.168,0,0,1,.123,4.429,12.427,12.427,0,0,0-.492,5.291c.246,3.814.492,7.628.615,11.443v2.461c0,.861.246,1.476,1.23,1.6a27.688,27.688,0,0,0,3.814.369h6.767l14.027-.246h8.613a2.092,2.092,0,0,0,1.353-.615c.123.369.492.492.984.615a27.683,27.683,0,0,0,3.814.369h6.767l14.027-.246h8.613a2.461,2.461,0,0,0,2.092-1.969v-.369c.246,1.23.738,1.6,1.476,1.6l2.584-.369c.861-.123,1.846-.615,2.338-.246s2.953.246,4.429.369l8.736.246H106.6a10.09,10.09,0,0,0,1.969-.492h.369a1.107,1.107,0,0,0,1.107.492h.861a18.7,18.7,0,0,0,2.83,0l1.353-.369c1.476.738,2.83.246,4.183.369l8.736.246h14.026c.615,0-.615-.369,0-.492s.738-.246.861-.123a39.545,39.545,0,0,0,6.275.369c1.476-.123.246-.861.123-2.461s.123-4.183.123-6.152-.123-5.045-.123-7.505-1.107-2.953.123-4.429,0-2.215-.123-3.322-.246-3.322-.369-5.045a.615.615,0,0,1,.123-.492c.738-.492.369-1.23.369-1.969a17.328,17.328,0,0,0-.123-2.461,5.536,5.536,0,0,0-.369-1.107c1.107-.615,0-1.23-.246-2.092" transform="translate(-0.049 -0.079)"/><path class="d" d="M59.1,71.4l.123.123L59.1,71.4Z" transform="translate(13.616 16.45)"/><path class="d" d="M138.783,101.766a1.711,1.711,0,0,0,.492-1.846,13.657,13.657,0,0,1-.123-1.846V95.368c0-.861-.615-1.846,0-2.707s0-.492,0-.615a12.168,12.168,0,0,1,.123-1.846,25.348,25.348,0,0,0,.246-3.076q-.123-5.66-.492-11.32a4.306,4.306,0,0,0-.861-3.076c1.107-.615,1.107-.615.984-1.846a4.164,4.164,0,0,1,0-1.353q-.123-3.691-.123-7.505a2.583,2.583,0,0,0-.123-.615,5.783,5.783,0,0,1,.246-3.2A10.7,10.7,0,0,0,139.4,55.5a23.892,23.892,0,0,0-.246-2.953,13.219,13.219,0,0,1,0-2.215c0-.738-.246-3.322-.246-5.045s.123-6.152.246-9.228,0-4.8,0-7.136.123-1.6,0-2.338-.246-2.953-.492-4.552a5.219,5.219,0,0,0-.369-1.6,6.889,6.889,0,0,0,.369-.984,22.885,22.885,0,0,0,.369-7.259,11.565,11.565,0,0,0-.738-2.584,1.107,1.107,0,0,0-.738-.492,27.192,27.192,0,0,0-7.751-.861c-3.076.123-6.275.369-9.351.369a60.906,60.906,0,0,1-7.752,0h-.615a11.812,11.812,0,0,1-5.168-.123c-.738-.123-1.353-.246-1.846.123A41.465,41.465,0,0,0,98.18,8.5c-3.076.123-6.275.369-9.351.369a60.783,60.783,0,0,1-7.752,0h-.615a11.812,11.812,0,0,1-5.168-.123,3.937,3.937,0,0,0-1.476,0,45.279,45.279,0,0,0-6.4.123,91.419,91.419,0,0,1-10.827-.123l-6.521-.369c-2.215-.246-4.429.492-6.644.123H35.922a91.418,91.418,0,0,1-10.827-.123L18.573,8.01c-2.215-.246-4.429.492-6.644.123H9.591c-.738,0-1.723-.123-2.092.738a5.168,5.168,0,0,0-.738,3.322c.123.984.738,1.846,0,2.707s0,.615,0,.984.123.861.123,1.353c.123,3.937.369,7.875.369,11.812s-.123,6.89-.123,10.335-.246,7.382-.246,10.951c0,15.257-.246,30.391.369,45.648A3.854,3.854,0,0,0,7.5,98.321a.738.738,0,0,1,0,.492c-.861,2.215-.738,4.552-.738,6.89s-.123,3.2-.123,4.922a3.814,3.814,0,0,0,.492,2.215,4.429,4.429,0,0,1,.123,3.814,10.7,10.7,0,0,0-.369,4.552c.246,3.322.369,6.644.615,9.966v2.215c0,.738.123,1.23,1.107,1.353h.861c23.254-102.492,105.322-94.617,98.8-57.213A23.87,23.87,0,0,1,93.5,95.368a9.1,9.1,0,0,1-10.7-1.353,9.351,9.351,0,0,1-2.461-10.7c-2.707,3.814-2.092,10.335,1.23,13.657s8.244,3.2,11.935,2.707,12.673.246,15.749,7.013.369,11.074-3.691,15.5A14.765,14.765,0,0,1,89.69,126c-12.673-8-18.948-23.254-14.765-37.527-3.814,8.49-5.291,18.825-1.476,27.561s12.8,15.134,21.655,18.21h6.152a9.351,9.351,0,0,0,1.723-.369h.369a.984.984,0,0,0,.984.492h3.322l1.107-.246c1.23.615,2.584.246,3.814.246l7.751.246h12.55a9.355,9.355,0,0,0,1.723-.369,1.081,1.081,0,0,1,.861-.123,2.96,2.96,0,0,0,1.846.369c1.353,0,1.969-.738,1.846-2.092s.123-3.568.123-5.414-.123-4.429-.123-6.521-.984-2.584.123-3.814,0-1.969-.123-2.953-.246-2.953-.369-4.429a.492.492,0,0,1,.123-.369c.615-.492.369-1.107.369-1.723a11.938,11.938,0,0,0-.123-2.092,4.676,4.676,0,0,0-.246-.984c.984-.492,0-1.107-.123-1.723" transform="translate(1.482 1.834)"/><path class="e" d="M72.9,107.816c-3.814-8.736-2.461-19.071,1.476-27.561-4.06,14.273,2.215,29.529,14.765,37.527a14.765,14.765,0,0,0,15.872-3.937c4.06-4.429,6.4-10.335,3.691-15.5s-10.827-7.752-15.749-7.013-9.228.369-11.935-2.707-3.937-9.843-1.23-13.657a9.351,9.351,0,0,0,2.461,10.7,9.1,9.1,0,0,0,10.7,1.353,23.87,23.87,0,0,0,14.765-17.841C114.245,31.778,32.177,23.9,8.8,126.518h8.49l12.427-.246h7.628a1.969,1.969,0,0,0,1.23-.615c.123.246.369.369.984.492L43,126.4h6.029l12.427-.246h7.628a2.215,2.215,0,0,0,1.846-1.723v-.246c.246,1.107.615,1.353,1.353,1.353l2.215-.246c.738-.123,1.6-.492,2.092-.246a25.072,25.072,0,0,0,3.937.369l7.751.246h6.275c-8.859-3.076-17.841-9.6-21.655-18.21" transform="translate(2.027 10.055)"/><path class="c" d="M90.9,54.21a20.671,20.671,0,0,1,1.353,10.581,25.345,25.345,0,0,1-.984,4.306c5.414-2.338,13.165-2.584,21.163.615-1.6-8.982-10.827-16.241-21.532-15.5" transform="translate(20.943 12.478)"/><path class="d" d="M74.39,46.8l2.092,6.029H83L77.712,56.52l1.969,6.152L74.39,58.858,69.1,62.672l2.092-6.152L65.9,52.829h6.521Z" transform="translate(15.183 10.782)"/><path class="c" d="M93.046,49.791A34.2,34.2,0,0,0,70.9,45.731c-20.425,2.707-35.066,17.226-35.189,17.1C12.086,47.7,47.891,45.608,47.891,45.608c-8.49-2.215-11.074-17.595-5.291-21.9,16-12.181,26.7,15.5,26.7,15.5-4.8-12.919-1.6-21.655,3.691-24.116,20.055-9.474,21.04,26.7,20.055,34.7" transform="translate(6.37 3.116)"/><path class="c" d="M399.622,46.722A2.953,2.953,0,0,1,394.7,44.63a2.733,2.733,0,0,1,2.83-2.83,2.953,2.953,0,0,1,2.092,5.045m-3.814-3.814a2.461,2.461,0,0,0,0,3.445,2.338,2.338,0,0,0,3.445,0,2.461,2.461,0,0,0,0-3.445,2.338,2.338,0,0,0-3.445,0m.492,3.322V43.031h2.215a.861.861,0,0,1,.492.738.738.738,0,0,1-.246.615l-.615.246.492.246a.862.862,0,0,1,.246.738v.246h-.738v-.492a1.471,1.471,0,0,0,0-.369l-.246-.246h-.615V45.86Zm1.6-2.584h-.738v.738h.738a.492.492,0,0,0,.123-.369.369.369,0,0,0-.246-.369" transform="translate(90.937 9.63)"/><path class="d" d="M63.9,25.469l.369-1.969c.984.738.861,1.107-.369,1.969" transform="translate(14.722 5.414)"/><path class="d" d="M40.012,46.21a.861.861,0,0,1,.123-.861c.492-.492.861-.246,1.23.369s-.738.861-1.23.369" transform="translate(9.204 10.388)"/><path class="d" d="M65.8,34.338c0-.492.123-.738.615-.738a1.353,1.353,0,0,1,1.23,1.23,2.584,2.584,0,0,1-.738.615c-.492.123-1.107-.492-1.107-.984" transform="translate(15.16 7.741)"/><path class="d" d="M42.592,29.076a5.782,5.782,0,0,1-.492-.984.615.615,0,0,1,.246-.492l.492.246a.984.984,0,0,1-.369,1.353" transform="translate(9.7 6.359)"/><path class="d" d="M50.7,27.032a.615.615,0,0,1,.246-.615c.615-.246.861,0,1.107.738s-.984.369-1.353-.123" transform="translate(11.679 6.065)"/><path class="d" d="M52.146,37.623a1.6,1.6,0,0,1-.738-1.723c1.6.615,1.6.738.738,1.723" transform="translate(11.835 8.271)"/><path class="d" d="M76.746,38.353,76.5,37h1.476v.369l-1.353,1.107" transform="translate(17.625 8.525)"/><path class="d" d="M73.4,20.123l-.984-.861a.738.738,0,0,1,0-.615l.615-.246c.615.123.738.615.369,1.723" transform="translate(16.668 4.239)"/><path class="d" d="M21.012,7.61a.861.861,0,0,1,.123-.861c.492-.492.861-.246,1.23.369s-.738.861-1.23.369" transform="translate(4.826 1.495)"/><path class="d" d="M105.292,7.576a5.782,5.782,0,0,1-.492-.984.615.615,0,0,1,.246-.492l.492.246a.984.984,0,0,1-.369,1.353" transform="translate(24.145 1.405)"/><path class="d" d="M32.8,2.132a.615.615,0,0,1,.246-.615c.615-.246.861,0,1.107.738s-.984.369-1.353-.123" transform="translate(7.555 0.328)"/><path class="d" d="M116.446,30.323a1.6,1.6,0,0,1-.738-1.723c1.6.615,1.6.738.738,1.723" transform="translate(26.649 6.589)"/><path class="d" d="M118.623,5.053V3.7h0l.615.738-.738.492" transform="translate(27.302 0.852)"/><path class="d" d="M17.807,99.361a2.706,2.706,0,0,1-.615.738,5.168,5.168,0,0,1-.492-1.107c0-.123.246-.492.492-.492s.738.492.615.861" transform="translate(3.848 22.694)"/><path class="d" d="M18.946,92.653A12.057,12.057,0,0,0,18.7,91.3c.861,0,.861,0,1.23,1.846s-.984.369-.984-.492" transform="translate(4.308 21.035)"/><path class="d" d="M22.149,108.689c-.246,0-.492-.246-.738-.369s.369-.492.615-.615.492.246.984.492-.738.615-.861.615" transform="translate(4.92 24.809)"/><path class="d" d="M26,97.4c-.615-.123-.615-.615-.369-1.6l.984.738L26,97.276" transform="translate(5.869 22.072)"/><path class="d" d="M37.109,82.724A1.724,1.724,0,0,1,36,81.248c-.123-.615,1.23-.123,1.107,1.476" transform="translate(8.293 18.66)"/><path class="d" d="M44.407,99.361a2.706,2.706,0,0,1-.615.738,5.168,5.168,0,0,1-.492-1.107c0-.123.246-.492.492-.492s.738.492.615.861" transform="translate(9.976 22.694)"/><path class="d" d="M46.464,65.4c.492,0,.984.123,1.107.738S47.2,67,46.71,67s-1.23-.492-1.107-.861a1.276,1.276,0,0,1,.984-.738" transform="translate(10.503 15.068)"/><path class="d" d="M57.207,108.592h-.492l-.615-1.23.492-.861c.246.246.738.369.738.738a3.076,3.076,0,0,1-.123,1.353" transform="translate(12.925 24.537)"/><path class="d" d="M65.307,85.492h-.492l-.615-1.23.492-.861c.246.246.738.369.738.738a3.076,3.076,0,0,1-.123,1.353" transform="translate(14.791 19.215)"/><path class="d" d="M47.1,81.928a1.389,1.389,0,0,1,1.846.492c.492.738-1.23.123-1.846-.492" transform="translate(10.852 18.842)"/><path class="d" d="M94.6,56.428a1.389,1.389,0,0,1,1.846.492c.492.738-1.23.123-1.846-.492" transform="translate(21.795 12.967)"/><path class="d" d="M51.149,114.889c-.246,0-.492-.246-.738-.369s.369-.492.615-.615.492.246.984.492-.738.615-.861.615" transform="translate(11.601 26.237)"/><path class="d" d="M1.723,57.353A11.935,11.935,0,0,0,1.6,56c.861,0,.861,0,1.23,1.846s-.984.369-.984-.492" transform="translate(0.369 12.902)"/><path class="d" d="M117.046,34.053A11.944,11.944,0,0,0,116.8,32.7c.861,0,.861,0,1.23,1.846s-.984.369-.984-.492" transform="translate(26.91 7.534)"/><path class="d" d="M3.507,68.292H3.015L2.4,67.061l.492-.861c.246.246.738.369.738.738a3.076,3.076,0,0,1-.123,1.353" transform="translate(0.553 15.252)"/><path class="d" d="M3.2,46.728a1.389,1.389,0,0,1,1.846.492c.492.738-1.23.123-1.846-.492" transform="translate(0.737 10.732)"/><path class="d" d="M4.949,73.389c-.246,0-.492-.246-.738-.369s.369-.492.615-.615.492.246.984.492-.738.615-.861.615" transform="translate(0.957 16.676)"/><path class="d" d="M119.649,52.489c-.246,0-.492-.246-.738-.369s.369-.492.615-.615.492.246.984.492-.738.615-.861.615" transform="translate(27.383 11.861)"/><path class="d" d="M105.649,115.289c-.246,0-.492-.246-.738-.369s.369-.492.615-.615.492.246.984.492-.738.615-.861.615" transform="translate(24.158 26.33)"/><path class="d" d="M52.8,54.834l-.246,1.23L51.2,55.326c.369-.861.984-.738,1.723-.492" transform="translate(11.796 12.592)"/><path class="d" d="M53.053,65.039,51.7,64.055c1.107-.492,1.23-.492,1.353.984" transform="translate(11.911 14.69)"/><path class="d" d="M52.6,97.4c-.615-.123-.615-.615-.369-1.6l.984.738-.615.738" transform="translate(11.998 22.072)"/><path class="d" d="M54.5,82.538a5.66,5.66,0,0,1-.984,1.476c-.369-.492-.615-.738-.615-1.107a.984.984,0,0,1,.984-1.107.692.692,0,0,1,.738.861" transform="translate(12.186 18.846)"/><path class="d" d="M54.5,93.141c.738-.984.861-.984,1.723-.123s-.984.984-1.723.123" transform="translate(12.557 21.285)"/><path class="d" d="M56.6,93.284c.861-.738,1.23-.615,1.476.738L56.6,93.284" transform="translate(13.04 21.389)"/><path class="c" d="M9.3,54.469,9.669,52.5c.984.738.861,1.107-.369,1.969" transform="translate(2.143 12.096)"/><path class="c" d="M9.806,102.087a.861.861,0,0,1,.123-.738c.492-.492.861-.246,1.23.369s-.738.861-1.23.369" transform="translate(2.251 23.29)"/><path class="c" d="M11.1,63.238c0-.492.123-.738.615-.738a1.353,1.353,0,0,1,1.23,1.23,2.584,2.584,0,0,1-.738.492c-.492.123-1.107-.492-1.107-.984" transform="translate(2.557 14.4)"/><path class="c" d="M12.392,85.176a5.66,5.66,0,0,1-.492-.984.615.615,0,0,1,.246-.492l.492.246a.984.984,0,0,1-.369,1.23" transform="translate(2.742 19.284)"/><path class="c" d="M11.8,14.635,10.2,13.4c0-.246.123-.738.738-.492l1.107.492,1.6,1.6a1.536,1.536,0,0,1-1.969-.369" transform="translate(2.35 2.96)"/><path class="c" d="M94.181,14.13l-1.969-.492A.486.486,0,0,1,92.7,12.9h1.23l2.092.738c-.615.738-.984.738-1.969.369" transform="translate(21.23 2.972)"/><path class="c" d="M11.349,92.223a1.476,1.476,0,0,1-.738-1.723c1.6.615,1.723.738.738,1.723" transform="translate(2.431 20.851)"/><path class="c" d="M28.946,60.653,28.7,59.3h1.476v.369l-1.353,1.107" transform="translate(6.612 13.662)"/><path class="c" d="M13.7,45.223l-.984-.861a.738.738,0,0,1,0-.615l.615-.246c.615.123.738.615.369,1.723" transform="translate(2.913 10.022)"/><path class="c" d="M84.207,24.3c.123,0,.246.369.369.615s-.492.369-.615.369l-.861-.492v-.369h1.107" transform="translate(19.146 5.599)"/><path class="c" d="M54.861,19.6v1.476L54,20.215l.861-.615" transform="translate(12.441 4.516)"/><path class="c" d="M39.6,14.938V14.2l.492.492-.492.246" transform="translate(9.124 3.272)"/><path class="c" d="M32.938,23.623v1.353l-.738-.861.861-.615" transform="translate(7.419 5.414)"/><path class="c" d="M21.306,67.087a.861.861,0,0,1,.123-.738c.492-.492.861-.246,1.23.369s-.738.861-1.23.369" transform="translate(4.901 15.226)"/><path class="c" d="M21.892,49.876a5.66,5.66,0,0,1-.492-.984.615.615,0,0,1,.246-.492l.492.246a.984.984,0,0,1-.369,1.23" transform="translate(4.93 11.151)"/><path class="c" d="M20,32.632a.615.615,0,0,1,.246-.615c.615-.246.861,0,1.107.738s-.984.369-1.353-.123" transform="translate(4.606 7.355)"/><path class="c" d="M15.249,82.823a1.476,1.476,0,0,1-.738-1.723c1.6.615,1.723.738.738,1.723" transform="translate(3.33 18.685)"/><path class="c" d="M25.9,52.63V51.4h.123l.615.738-.738.492" transform="translate(5.967 11.842)"/><path class="c" d="M109.007,106.961a2.706,2.706,0,0,1-.615.738,4.922,4.922,0,0,1-.492-1.107c0-.123.246-.492.492-.492s.738.492.615.861" transform="translate(24.86 24.445)"/><path class="c" d="M85.446,77.653A11.442,11.442,0,0,0,85.2,76.3c.861,0,.861,0,1.23,1.846s-.984.369-.984-.492" transform="translate(19.63 17.579)"/><path class="c" d="M91.507,100.992h-.492l-.615-1.23.492-.861c.246.246.738.369.738.738a2.953,2.953,0,0,1-.123,1.353" transform="translate(20.828 22.786)"/><path class="c" d="M89.149,106.889c-.246,0-.492-.246-.738-.369s.369-.492.615-.615.492.246.984.492-.738.615-.861.615" transform="translate(20.356 24.394)"/><path class="c" d="M99.7,106.6c-.615-.123-.615-.492-.369-1.6l.984.738-.615.738" transform="translate(22.849 24.191)"/><path class="c" d="M85,82.041c.738-.984.861-.984,1.723-.123s-.984.984-1.723.123" transform="translate(19.584 18.728)"/><path class="c" d="M94.436,71.724c-.738-.246-.984-.861-1.23-1.476s1.23-.123,1.23,1.476" transform="translate(21.468 16.126)"/><path class="c" d="M101.807,88.261a2.706,2.706,0,0,1-.615.738,5.044,5.044,0,0,1-.492-1.107c0-.123.246-.492.492-.492s.738.492.615.861" transform="translate(23.201 20.137)"/><path class="c" d="M110.407,18.5c.123,0,.246.369.369.615s-.492.369-.615.369l-.861-.492v-.369h1.107" transform="translate(25.182 4.262)"/><path class="c" d="M103.784,54.6c.492,0,1.107.123,1.107.738s-.369.738-.861.861a1.222,1.222,0,0,1-1.23-.861c0-.369.492-.615.984-.738" transform="translate(23.685 12.58)"/><path class="c" d="M89.707,37.161a2.706,2.706,0,0,1-.615.738,5.045,5.045,0,0,1-.492-1.107c0-.123.246-.492.492-.492s.738.492.615.861" transform="translate(20.413 8.363)"/><path class="c" d="M90.946,30.453A11.566,11.566,0,0,0,90.7,29.1c.861,0,.861,0,1.23,1.846s-.984.369-.984-.492" transform="translate(20.897 6.705)"/><path class="c" d="M92.207,39.692h-.492l-.615-1.23.492-.861c.246.246.738.369.738.738a2.953,2.953,0,0,1-.123,1.353" transform="translate(20.989 8.663)"/><path class="c" d="M104.5,71.028c.861-.246,1.353-.246,1.846.492s-1.23.123-1.846-.492" transform="translate(24.076 16.331)"/><path class="c" d="M106.149,97.389c-.246,0-.492-.246-.738-.369s.369-.492.615-.615.492.246.984.492-.738.615-.861.615" transform="translate(24.273 22.206)"/><path class="c" d="M110.223,44.134l-.246,1.23-1.476-.738c.369-.861.984-.738,1.723-.492" transform="translate(24.998 10.126)"/><path class="c" d="M110.453,54.312,109.1,53.45c1.107-.492,1.23-.369,1.353.861" transform="translate(25.136 12.253)"/><path class="c" d="M112,71.661c-.123.492-.615.861-.984,1.353s-.615-.738-.615-1.107a.984.984,0,0,1,.984-1.107c.492,0,.861.369.738.738" transform="translate(25.434 16.312)"/><path class="c" d="M111.9,82.041c.738-.984.861-.984,1.723-.123s-.984.984-1.723.123" transform="translate(25.781 18.728)"/><path class="c" d="M114.2,82.284c.861-.738-.861-.615-.492.738s1.107-.492.492-.738" transform="translate(26.186 18.854)"/></g></g></svg>